<?xml version="1.0" encoding="UTF-8" standalone="no"?><!DOCTYPE svg PUBLIC "-//W3C//DTD SVG 1.1//EN" "http://www.w3.org/Graphics/SVG/1.1/DTD/svg11.dtd"><svg width="100%" height="100%" viewBox="0 0 608 114" version="1.1" xmlns="http://www.w3.org/2000/svg" xmlns:xlink="http://www.w3.org/1999/xlink" xml:space="preserve" xmlns:serif="http://www.serif.com/" style="fill-rule:evenodd;clip-rule:evenodd;stroke-miterlimit:10;"><g><g id="Layer-3" serif:id="Layer 3"><g opacity="0.3"><rect x="200.902" y="1.759" width="206.102" height="109.921" style="fill:#fff;"/></g><g opacity="0.15"><rect x="1.76" y="39.544" width="199.256" height="34.383" style="fill:#fff;"/></g><g opacity="0.15"><rect x="406.947" y="39.542" width="199.256" height="34.383" style="fill:#fff;"/></g></g><g id="Layer-1" serif:id="Layer 1"><path d="M310.822,73.894l0,-34.35" style="fill:none;fill-rule:nonzero;stroke:#000;stroke-width:0.35px;stroke-dasharray:7,7;"/><path d="M297.082,73.894l0,-5.694" style="fill:none;fill-rule:nonzero;stroke:#000;stroke-width:0.35px;"/><path d="M297.082,60.546l0,-11.482" style="fill:none;fill-rule:nonzero;stroke:#000;stroke-width:0.35px;stroke-dasharray:4.71,4.71;"/><path d="M297.082,45.239l0,-5.694" style="fill:none;fill-rule:nonzero;stroke:#000;stroke-width:0.35px;"/><path d="M200.901,39.545l5.694,0" style="fill:none;fill-rule:nonzero;stroke:#000;stroke-width:0.35px;"/><path d="M218.708,39.545l66.623,0" style="fill:none;fill-rule:nonzero;stroke:#000;stroke-width:0.35px;stroke-dasharray:7.45,7.45;"/><path d="M291.388,39.545l5.694,0" style="fill:none;fill-rule:nonzero;stroke:#000;stroke-width:0.35px;"/><path d="M407.003,39.543l199.14,0" style="fill:none;fill-rule:nonzero;stroke:#000;stroke-width:0.35px;"/><path d="M407.003,73.894l199.14,0" style="fill:none;fill-rule:nonzero;stroke:#000;stroke-width:0.35px;"/><path d="M407.003,1.759l0,109.921" style="fill:none;fill-rule:nonzero;stroke:#000;stroke-width:0.35px;"/><path d="M200.901,111.68l206.102,0" style="fill:none;fill-rule:nonzero;stroke:#000;stroke-width:0.35px;"/><path d="M200.901,1.759l0,109.921" style="fill:none;fill-rule:nonzero;stroke:#000;stroke-width:0.35px;"/><path d="M200.901,34.734l206.102,0" style="fill:none;fill-rule:nonzero;stroke:#000;stroke-width:0.35px;"/><path d="M200.901,73.894l5.694,0" style="fill:none;fill-rule:nonzero;stroke:#000;stroke-width:0.35px;"/><path d="M218.708,73.894l66.623,0" style="fill:none;fill-rule:nonzero;stroke:#000;stroke-width:0.35px;stroke-dasharray:7.45,7.45;"/><path d="M291.388,73.894l5.694,0" style="fill:none;fill-rule:nonzero;stroke:#000;stroke-width:0.35px;"/><path d="M200.901,109.618l206.102,0" style="fill:none;fill-rule:nonzero;stroke:#000;stroke-width:0.35px;"/><path d="M407.003,39.543l-96.181,0" style="fill:none;fill-rule:nonzero;stroke:#000;stroke-width:0.35px;stroke-dasharray:7,7;"/><path d="M200.901,73.894l-199.142,0" style="fill:none;fill-rule:nonzero;stroke:#000;stroke-width:0.35px;"/><path d="M407.003,73.894l-96.181,0" style="fill:none;fill-rule:nonzero;stroke:#000;stroke-width:0.35px;stroke-dasharray:7,7;"/><path d="M200.901,39.543l-199.142,0" style="fill:none;fill-rule:nonzero;stroke:#000;stroke-width:0.35px;"/><path d="M200.901,78.703l206.102,0" style="fill:none;fill-rule:nonzero;stroke:#000;stroke-width:0.35px;"/><path d="M200.901,1.759l206.102,0" style="fill:none;fill-rule:nonzero;stroke:#000;stroke-width:0.35px;"/><path d="M200.901,3.476l206.102,0" style="fill:none;fill-rule:nonzero;stroke:#000;stroke-width:0.35px;"/></g></g></svg>