<?xml version="1.0" encoding="UTF-8" standalone="no"?><!DOCTYPE svg PUBLIC "-//W3C//DTD SVG 1.1//EN" "http://www.w3.org/Graphics/SVG/1.1/DTD/svg11.dtd"><svg width="100%" height="100%" viewBox="0 0 630 70" version="1.1" xmlns="http://www.w3.org/2000/svg" xmlns:xlink="http://www.w3.org/1999/xlink" xml:space="preserve" xmlns:serif="http://www.serif.com/" style="fill-rule:evenodd;clip-rule:evenodd;stroke-linejoin:round;stroke-miterlimit:2;"><g><path d="M52.823,32.977c-1.01,0 -1.815,-0.333 -2.531,-1.049c-0.714,-0.717 -1.049,-1.52 -1.049,-2.53l0,-22.079c0,-1.07 0.327,-1.895 1.027,-2.595c0.701,-0.7 1.527,-1.027 2.597,-1.027l12.054,0c0.83,0 1.493,0.276 2.09,0.873c0.595,0.595 0.873,1.244 0.873,2.043c0,0.8 -0.292,1.465 -0.918,2.088c-0.609,0.55 -1.289,0.831 -2.089,0.831l-6.932,0c-0.851,0 -1.542,0.689 -1.542,1.542l0,3.135c0,0.853 0.691,1.542 1.542,1.542l5.872,0c0.79,0 1.421,0.271 1.983,0.854c0.577,0.598 0.847,1.252 0.847,2.063c0,0.819 -0.258,1.45 -0.81,1.982c-0.569,0.547 -1.224,0.803 -2.063,0.803l-5.829,0c-0.851,0 -1.542,0.691 -1.542,1.542l0,6.403c0,1.008 -0.334,1.813 -1.05,2.53c-0.715,0.716 -1.52,1.049 -2.53,1.049" style="fill:#1c4685;fill-rule:nonzero;"/><path d="M75.033,32.801c-1.005,0 -1.801,-0.332 -2.5,-1.043c-0.697,-0.706 -1.036,-1.549 -1.036,-2.581l0,-22.253c0,-0.981 0.333,-1.772 1.05,-2.486c0.716,-0.717 1.519,-1.05 2.529,-1.05c0.981,0 1.772,0.333 2.486,1.048c0.717,0.716 1.05,1.521 1.05,2.531l0,22.298c0,1.001 -0.334,1.793 -1.055,2.493c-0.732,0.711 -1.534,1.043 -2.524,1.043" style="fill:#1c4685;fill-rule:nonzero;"/><path d="M104.749,32.801c-1.238,0 -2.324,-0.705 -3.32,-2.156l-4.586,-6.791c-0.287,-0.424 -0.766,-0.679 -1.278,-0.679c-0.512,0 -0.992,0.255 -1.279,0.679l-4.592,6.8c-0.99,1.441 -2.077,2.147 -3.314,2.147c-0.655,0 -1.249,-0.191 -1.812,-0.583c-0.621,-0.432 -1.071,-0.899 -1.337,-1.386c-0.26,-0.483 -0.387,-1.02 -0.387,-1.649c0,-0.72 0.246,-1.399 0.751,-2.071l7.266,-9.281c0.457,-0.582 0.435,-1.404 -0.049,-1.962l-5.784,-6.658c-0.609,-0.691 -0.902,-1.468 -0.902,-2.384c0,-1.081 0.402,-1.902 1.264,-2.58c0.716,-0.585 1.408,-0.859 2.139,-0.859c1.211,0 2.343,0.706 3.457,2.16l3.357,4.347c0.292,0.38 0.744,0.6 1.222,0.6c0.478,0 0.928,-0.22 1.219,-0.6l3.357,-4.344c1.118,-1.457 2.25,-2.163 3.461,-2.163c0.7,0 1.377,0.274 2.071,0.842c0.461,0.353 0.774,0.735 0.991,1.201c0.23,0.489 0.341,0.961 0.341,1.442c0,0.379 -0.075,0.785 -0.223,1.209c-0.139,0.398 -0.366,0.774 -0.671,1.118l-5.834,6.665c-0.489,0.558 -0.51,1.383 -0.054,1.966l7.286,9.304c0.486,0.649 0.733,1.357 0.733,2.138c0,1.198 -0.507,2.115 -1.599,2.883c-0.62,0.432 -1.24,0.645 -1.894,0.645" style="fill:#1c4685;fill-rule:nonzero;"/><path d="M121.174,9.664c-0.853,0 -1.542,0.689 -1.542,1.542l0,4.768c0,0.853 0.689,1.542 1.542,1.542l4.063,0c1.081,0 2.054,-0.401 2.811,-1.158c0.787,-0.785 1.203,-1.758 1.203,-2.811c0,-1.044 -0.427,-1.997 -1.237,-2.759c-0.78,-0.734 -1.741,-1.124 -2.777,-1.124l-4.063,0Zm-5.078,23.047c-0.998,0 -1.795,-0.345 -2.507,-1.088c-0.722,-0.753 -1.072,-1.609 -1.072,-2.616l0,-21.298c0,-1.288 0.324,-2.265 0.987,-2.993c0.635,-0.696 1.446,-1.02 2.549,-1.02l9.493,0c3.205,0 5.73,0.93 7.717,2.844c1.97,1.895 2.927,4.194 2.927,7.027c0,2.618 -0.805,4.729 -2.461,6.453c-1.688,1.757 -3.918,2.779 -6.82,3.122l-1.866,0.124l-3.869,-0.003c-0.853,0 -1.542,0.691 -1.542,1.542l0,4.332c0,1.073 -0.327,1.889 -1.029,2.563c-0.708,0.68 -1.526,1.011 -2.507,1.011" style="fill:#fff;fill-rule:nonzero;"/><path d="M149.345,9.443c-0.853,0 -1.542,0.689 -1.542,1.542l0,3.798c0,0.853 0.689,1.542 1.542,1.542l4.239,0c1.001,0 1.872,-0.386 2.521,-1.113c0.642,-0.724 0.924,-1.641 0.824,-2.657c0.007,-0.756 -0.317,-1.561 -0.932,-2.175c-0.612,-0.613 -1.386,-0.937 -2.237,-0.937l-4.415,0Zm11.184,23.447c-1.233,0 -2.331,-0.722 -3.354,-2.206l-6.552,-9.701c-0.291,-0.431 -0.775,-0.678 -1.278,-0.678c-0.151,0 -0.302,0.022 -0.452,0.068c-0.648,0.199 -1.09,0.796 -1.09,1.474l0,7.514c0,1.023 -0.323,1.822 -1.013,2.512c-0.691,0.694 -1.501,1.017 -2.546,1.017c-0.987,0 -1.781,-0.337 -2.501,-1.055c-0.721,-0.717 -1.055,-1.539 -1.055,-2.583l0,-21.741c0,-1.28 0.305,-2.216 0.934,-2.867c0.617,-0.638 1.494,-0.948 2.688,-0.948l9.672,0c2.72,0 4.937,0.595 6.59,1.768c1.626,1.154 2.662,2.758 3.168,4.904c0.206,0.904 0.311,1.739 0.311,2.472c0,1.193 -0.217,2.291 -0.643,3.268c-0.427,0.976 -1.027,1.794 -1.835,2.505l-0.177,0.175l-1.568,1.229c-0.662,0.519 -0.785,1.474 -0.276,2.145l3.753,4.945c0.535,0.686 0.789,1.416 0.789,2.247c0,1.207 -0.479,2.114 -1.512,2.852c-0.646,0.46 -1.319,0.684 -2.053,0.684" style="fill:#fff;fill-rule:nonzero;"/><path d="M184.139,9.045c-2.346,0 -4.352,0.87 -5.96,2.586c-1.582,1.687 -2.383,3.848 -2.383,6.42c0,2.573 0.801,4.732 2.383,6.418c1.606,1.715 3.596,2.586 5.915,2.586c0.544,0 1.093,-0.054 1.628,-0.164c1.983,-0.396 3.636,-1.426 4.91,-3.058c1.255,-1.612 1.892,-3.543 1.892,-5.739c0,-0.523 -0.052,-1.087 -0.154,-1.678c-0.348,-2.154 -1.295,-3.943 -2.81,-5.3c-1.538,-1.375 -3.363,-2.071 -5.421,-2.071m0,23.8c-2.563,0 -4.984,-0.58 -7.196,-1.725c-2.205,-1.143 -4.05,-2.775 -5.491,-4.852c-1.805,-2.589 -2.683,-5.275 -2.683,-8.217c0,-2.944 0.878,-5.632 2.68,-8.215c1.411,-2.023 3.262,-3.642 5.501,-4.814c2.237,-1.172 4.657,-1.767 7.189,-1.767c2.563,0 4.984,0.58 7.193,1.724c2.207,1.143 4.054,2.776 5.491,4.853c1.808,2.566 2.685,5.25 2.685,8.219c0,2.968 -0.877,5.653 -2.678,8.207c-1.421,2.092 -3.259,3.719 -5.472,4.86c-2.226,1.146 -4.655,1.727 -7.219,1.727" style="fill:#fff;fill-rule:nonzero;"/><path d="M208.335,32.977c-1.01,0 -1.815,-0.333 -2.532,-1.05c-0.714,-0.716 -1.047,-1.519 -1.047,-2.529l0,-22.079c0,-1.07 0.327,-1.895 1.027,-2.595c0.7,-0.7 1.525,-1.027 2.596,-1.027l12.055,0c0.83,0 1.493,0.276 2.088,0.871c0.595,0.597 0.875,1.247 0.875,2.045c0,0.8 -0.293,1.463 -0.918,2.089c-0.6,0.54 -1.301,0.83 -2.089,0.83l-6.933,0c-0.852,0 -1.542,0.689 -1.542,1.542l0,3.135c0,0.853 0.69,1.542 1.542,1.542l5.873,0c0.79,0 1.419,0.271 1.982,0.854c0.578,0.598 0.848,1.254 0.848,2.063c0,0.819 -0.258,1.448 -0.811,1.982c-0.569,0.547 -1.223,0.803 -2.062,0.803l-5.83,0c-0.852,0 -1.542,0.691 -1.542,1.542l0,6.403c0,1.01 -0.335,1.813 -1.049,2.53c-0.717,0.716 -1.522,1.049 -2.531,1.049" style="fill:#fff;fill-rule:nonzero;"/><path d="M230.546,32.801c-1.005,0 -1.801,-0.332 -2.5,-1.043c-0.697,-0.706 -1.036,-1.549 -1.036,-2.581l0,-22.253c0,-0.981 0.333,-1.772 1.049,-2.488c0.717,-0.714 1.52,-1.048 2.53,-1.048c0.981,0 1.77,0.334 2.487,1.048c0.707,0.707 1.049,1.536 1.049,2.531l0,22.298c0,1.001 -0.335,1.793 -1.055,2.492c-0.723,0.701 -1.548,1.044 -2.524,1.044" style="fill:#fff;fill-rule:nonzero;"/><path d="M243.57,32.403c-1.167,0 -2.069,-0.345 -2.758,-1.055c-0.702,-0.72 -1.043,-1.674 -1.043,-2.914l0,-21.474c0,-1.007 0.333,-1.811 1.05,-2.525c0.327,-0.327 0.71,-0.578 1.172,-0.766c0.463,-0.19 0.909,-0.281 1.357,-0.281c1.009,0 1.809,0.336 2.526,1.061c0.72,0.731 1.057,1.542 1.057,2.552l0,18.158c0,0.851 0.689,1.542 1.542,1.542l7.462,0c0.817,0 1.446,0.257 1.98,0.809c0.547,0.569 0.803,1.239 0.803,2.108c0,0.801 -0.256,1.428 -0.807,1.982c-0.549,0.547 -1.178,0.803 -1.976,0.803l-12.365,0Z" style="fill:#fff;fill-rule:nonzero;"/><path d="M31.877,21.427c-1.912,0 -3.47,-1.558 -3.47,-3.47l0,-5.968c0,-0.853 -0.689,-1.542 -1.542,-1.542l-7.212,0c-0.851,0 -1.542,0.689 -1.542,1.542l0,5.968c0,1.912 -1.557,3.47 -3.469,3.47c-1.912,0 -3.47,-1.558 -3.47,-3.47l0,-10.979c0,-1.913 1.558,-3.47 3.47,-3.47l17.235,0c1.912,0 3.47,1.557 3.47,3.47l0,10.979c0,1.912 -1.558,3.47 -3.47,3.47" style="fill:#fff;fill-rule:nonzero;"/><path d="M7.212,32.989c-1.912,0 -3.47,-1.557 -3.47,-3.47c0,-1.912 1.558,-3.469 3.47,-3.469l32.094,0c1.914,0 3.47,1.557 3.47,3.469c0,1.913 -1.556,3.47 -3.47,3.47l-32.094,0Z" style="fill:#fff;fill-rule:nonzero;"/><g opacity="0.8"><path d="M60.876,54.444l0,2.227c-0.897,0.81 -2.082,1.273 -2.892,1.273c-1.417,0 -2.226,-0.666 -2.226,-1.707c0,-1.215 0.867,-1.793 2.515,-1.793l2.603,0Zm0,-2.279l-2.718,0c-3.526,0 -5.662,1.529 -5.662,4.217c0,2.485 1.761,4.303 4.505,4.303c1.735,0 3.239,-0.693 4.365,-1.847l0.174,0.662c0.23,0.636 0.606,1.041 1.529,1.041c1.01,0 1.473,-0.723 1.473,-1.59c0,-0.635 -0.318,-1.213 -0.318,-2.86l0,-4.91c0,-2.314 -0.895,-5.199 -5.742,-5.199c-1.327,0 -2.945,0.259 -3.872,0.807c-0.636,0.404 -0.926,0.693 -1.042,1.732l-0.087,0.751c-0.086,0.926 0.493,1.649 1.477,1.649c0.781,0 1.389,-0.434 1.476,-1.099l0.087,-0.752c0.519,-0.231 1.182,-0.318 1.759,-0.318c2.077,0 2.596,1.157 2.596,2.429l0,0.984Z" style="fill:#fff;fill-rule:nonzero;"/><path d="M79.857,48.607c0.781,0 1.533,0.174 2.285,0.463c0.548,0.173 1.068,0.433 1.558,0.433c0.866,0 1.27,-0.664 1.27,-1.271c0,-0.635 -0.433,-1.067 -1.01,-1.356c-1.01,-0.519 -2.975,-0.894 -4.305,-0.894c-2.601,0 -5.286,1.413 -5.286,4.244c0,3.006 3.06,3.873 4.794,4.365c1.764,0.52 2.921,0.925 2.921,1.965c0,0.838 -0.81,1.532 -2.285,1.532c-0.809,0 -1.677,-0.202 -2.486,-0.462c-0.635,-0.174 -1.212,-0.434 -1.731,-0.434c-0.924,0 -1.386,0.694 -1.386,1.387c0,0.577 0.375,0.981 1.039,1.298c1.155,0.548 3.292,0.808 4.564,0.808c2.978,0 5.633,-1.443 5.633,-4.273c0,-2.804 -2.626,-3.671 -4.765,-4.307c-1.648,-0.492 -2.95,-0.896 -2.95,-2.052c0,-0.81 0.637,-1.446 2.14,-1.446Z" style="fill:#fff;fill-rule:nonzero;"/><path d="M90.117,49.07l0,6.619c0,2.601 1.443,4.996 4.532,4.996c0.694,0 1.965,-0.144 2.89,-0.75c0.549,-0.347 0.78,-0.779 0.78,-1.299c0,-0.837 -0.607,-1.299 -1.3,-1.299c-0.665,0 -0.954,0.52 -1.878,0.52c-1.041,0 -1.676,-0.665 -1.676,-2.139l0,-6.648l3.236,0c0.78,0 1.387,-0.606 1.387,-1.386c0,-0.779 -0.607,-1.414 -1.387,-1.414l-3.236,0l0,-2.947c0,-0.953 -0.722,-1.676 -1.674,-1.676c-0.924,0 -1.674,0.723 -1.674,1.676l0,2.947l-1.618,0c-0.781,0 -1.387,0.635 -1.387,1.414c0,0.78 0.606,1.386 1.387,1.386l1.618,0Z" style="fill:#fff;fill-rule:nonzero;"/><path d="M109.62,56.672c-0.896,0.723 -1.908,1.272 -2.862,1.272c-1.533,0 -2.4,-0.665 -2.4,-2.687l0,-7.484c0,-0.954 -0.693,-1.676 -1.674,-1.676c-0.953,0 -1.674,0.722 -1.674,1.676l0,7.484c0,3.899 1.876,5.428 4.794,5.428c1.416,0 2.602,-0.491 3.816,-1.414l0,1.732c0,1.881 -1.127,2.575 -2.804,2.575c-0.666,0 -1.591,-0.116 -2.111,-0.289c-0.607,-0.174 -1.242,-0.376 -1.675,-0.376c-0.895,0 -1.328,0.665 -1.328,1.271c0,0.664 0.433,1.039 0.982,1.356c1.125,0.577 3.12,0.808 4.132,0.808c3.786,0 6.152,-1.702 6.152,-5.807l0,-12.768c0,-0.954 -0.721,-1.676 -1.674,-1.676c-0.952,0 -1.674,0.722 -1.674,1.676l0,8.899Z" style="fill:#fff;fill-rule:nonzero;"/><path d="M115.428,59.011c0,0.779 0.607,1.385 1.387,1.385l7.711,0c0.78,0 1.358,-0.606 1.358,-1.385c0,-0.779 -0.578,-1.385 -1.358,-1.385l-2.196,0l0,-16.645c0,-0.779 -0.577,-1.414 -1.385,-1.414l-4.072,0c-0.781,0 -1.358,0.635 -1.358,1.414c0,0.779 0.577,1.356 1.358,1.356l2.109,0l0,15.289l-2.167,0c-0.78,0 -1.387,0.606 -1.387,1.385Z" style="fill:#fff;fill-rule:nonzero;"/><path d="M127.275,59.011c0,0.779 0.606,1.385 1.386,1.385l7.712,0c0.751,0 1.358,-0.606 1.358,-1.385c0,-0.779 -0.607,-1.385 -1.358,-1.385l-2.196,0l0,-9.942c0,-0.779 -0.607,-1.414 -1.386,-1.414l-4.072,0c-0.78,0 -1.387,0.635 -1.387,1.414c0,0.78 0.607,1.386 1.387,1.386l2.11,0l0,8.556l-2.168,0c-0.78,0 -1.386,0.606 -1.386,1.385Zm4.563,-14.825c1.126,0 2.05,-0.894 2.05,-2.049c0,-1.126 -0.924,-2.021 -2.05,-2.021c-1.126,0 -2.05,0.895 -2.05,2.021c0,1.155 0.924,2.049 2.05,2.049Z" style="fill:#fff;fill-rule:nonzero;"/><path d="M145.043,48.607c0.78,0 1.532,0.174 2.284,0.463c0.548,0.173 1.068,0.433 1.559,0.433c0.866,0 1.27,-0.664 1.27,-1.271c0,-0.635 -0.433,-1.067 -1.011,-1.356c-1.01,-0.519 -2.975,-0.894 -4.305,-0.894c-2.601,0 -5.285,1.413 -5.285,4.244c0,3.006 3.059,3.873 4.794,4.365c1.764,0.52 2.92,0.925 2.92,1.965c0,0.838 -0.809,1.532 -2.284,1.532c-0.81,0 -1.677,-0.202 -2.486,-0.462c-0.635,-0.174 -1.213,-0.434 -1.732,-0.434c-0.924,0 -1.386,0.694 -1.386,1.387c0,0.577 0.376,0.981 1.039,1.298c1.155,0.548 3.292,0.808 4.565,0.808c2.977,0 5.632,-1.443 5.632,-4.273c0,-2.804 -2.626,-3.671 -4.765,-4.307c-1.648,-0.492 -2.949,-0.896 -2.949,-2.052c0,-0.81 0.636,-1.446 2.14,-1.446Z" style="fill:#fff;fill-rule:nonzero;"/><path d="M153.944,58.894c0,0.953 0.721,1.675 1.674,1.675c0.952,0 1.674,-0.722 1.674,-1.675l0,-8.9c0.838,-0.693 1.966,-1.242 2.862,-1.242c1.533,0 2.4,0.664 2.4,2.658l0,7.484c0,0.953 0.693,1.675 1.674,1.675c0.953,0 1.674,-0.722 1.674,-1.675l0,-7.484c0,-3.87 -1.876,-5.428 -4.793,-5.428c-1.388,0 -2.66,0.49 -3.817,1.413l0,-6.325c0,-0.954 -0.722,-1.676 -1.674,-1.676c-0.953,0 -1.674,0.722 -1.674,1.676l0,17.824Z" style="fill:#fff;fill-rule:nonzero;"/><path d="M181.391,48.607c0.781,0 1.533,0.174 2.285,0.463c0.548,0.173 1.068,0.433 1.558,0.433c0.866,0 1.27,-0.664 1.27,-1.271c0,-0.635 -0.432,-1.067 -1.01,-1.356c-1.01,-0.519 -2.975,-0.894 -4.305,-0.894c-2.601,0 -5.286,1.413 -5.286,4.244c0,3.006 3.06,3.873 4.794,4.365c1.764,0.52 2.921,0.925 2.921,1.965c0,0.838 -0.81,1.532 -2.284,1.532c-0.81,0 -1.678,-0.202 -2.487,-0.462c-0.635,-0.174 -1.212,-0.434 -1.731,-0.434c-0.924,0 -1.386,0.694 -1.386,1.387c0,0.577 0.375,0.981 1.039,1.298c1.155,0.548 3.292,0.808 4.565,0.808c2.977,0 5.632,-1.443 5.632,-4.273c0,-2.804 -2.626,-3.671 -4.765,-4.307c-1.648,-0.492 -2.949,-0.896 -2.949,-2.052c0,-0.81 0.636,-1.446 2.139,-1.446Z" style="fill:#fff;fill-rule:nonzero;"/><path d="M189.541,53.348c0,4.104 2.31,7.337 6.558,7.337c4.248,0 6.528,-3.233 6.528,-7.337c0,-4.163 -2.338,-7.366 -6.528,-7.366c-4.191,0 -6.558,3.203 -6.558,7.366Zm6.558,4.596c-1.908,0 -3.181,-1.764 -3.181,-4.596c0,-2.862 1.273,-4.596 3.181,-4.596c1.937,0 3.18,1.734 3.18,4.596c0,2.832 -1.243,4.596 -3.18,4.596Z" style="fill:#fff;fill-rule:nonzero;"/><path d="M204.162,59.011c0,0.779 0.607,1.385 1.387,1.385l7.711,0c0.78,0 1.358,-0.606 1.358,-1.385c0,-0.779 -0.578,-1.385 -1.358,-1.385l-2.196,0l0,-16.645c0,-0.779 -0.577,-1.414 -1.385,-1.414l-4.072,0c-0.78,0 -1.358,0.635 -1.358,1.414c0,0.779 0.578,1.356 1.358,1.356l2.109,0l0,15.289l-2.167,0c-0.78,0 -1.387,0.606 -1.387,1.385Z" style="fill:#fff;fill-rule:nonzero;"/><path d="M225.544,56.672c-0.839,0.723 -1.967,1.272 -2.863,1.272c-1.532,0 -2.4,-0.665 -2.4,-2.687l0,-7.484c0,-0.954 -0.692,-1.676 -1.674,-1.676c-0.952,0 -1.674,0.722 -1.674,1.676l0,7.484c0,3.899 1.876,5.428 4.794,5.428c1.532,0 3.036,-0.606 4.278,-1.847l0.202,0.692c0.231,0.606 0.607,1.039 1.501,1.039c1.039,0 1.502,-0.722 1.502,-1.588c0,-0.607 -0.318,-1.329 -0.318,-2.773l0,-8.436c0,-0.953 -0.722,-1.675 -1.674,-1.675c-0.953,0 -1.674,0.722 -1.674,1.675l0,8.9Z" style="fill:#fff;fill-rule:nonzero;"/><path d="M234.53,49.07l0,6.619c0,2.601 1.443,4.996 4.532,4.996c0.694,0 1.965,-0.144 2.89,-0.75c0.549,-0.347 0.78,-0.779 0.78,-1.299c0,-0.837 -0.607,-1.299 -1.3,-1.299c-0.665,0 -0.954,0.52 -1.878,0.52c-1.04,0 -1.676,-0.665 -1.676,-2.139l0,-6.648l3.236,0c0.78,0 1.387,-0.606 1.387,-1.386c0,-0.779 -0.607,-1.414 -1.387,-1.414l-3.236,0l0,-2.947c0,-0.953 -0.722,-1.676 -1.674,-1.676c-0.924,0 -1.674,0.723 -1.674,1.676l0,2.947l-1.618,0c-0.78,0 -1.387,0.635 -1.387,1.414c0,0.78 0.607,1.386 1.387,1.386l1.618,0Z" style="fill:#fff;fill-rule:nonzero;"/><path d="M244.498,59.011c0,0.779 0.607,1.385 1.387,1.385l7.711,0c0.752,0 1.358,-0.606 1.358,-1.385c0,-0.779 -0.606,-1.385 -1.358,-1.385l-2.196,0l0,-9.942c0,-0.779 -0.606,-1.414 -1.385,-1.414l-4.072,0c-0.78,0 -1.387,0.635 -1.387,1.414c0,0.78 0.607,1.386 1.387,1.386l2.109,0l0,8.556l-2.167,0c-0.78,0 -1.387,0.606 -1.387,1.385Zm4.564,-14.825c1.126,0 2.049,-0.894 2.049,-2.049c0,-1.126 -0.923,-2.021 -2.049,-2.021c-1.126,0 -2.05,0.895 -2.05,2.021c0,1.155 0.924,2.049 2.05,2.049Z" style="fill:#fff;fill-rule:nonzero;"/><path d="M256.489,53.348c0,4.104 2.309,7.337 6.557,7.337c4.249,0 6.529,-3.233 6.529,-7.337c0,-4.163 -2.338,-7.366 -6.529,-7.366c-4.19,0 -6.557,3.203 -6.557,7.366Zm6.557,4.596c-1.908,0 -3.18,-1.764 -3.18,-4.596c0,-2.862 1.272,-4.596 3.18,-4.596c1.937,0 3.181,1.734 3.181,4.596c0,2.832 -1.244,4.596 -3.181,4.596Z" style="fill:#fff;fill-rule:nonzero;"/><path d="M273.132,58.894c0,0.953 0.722,1.675 1.674,1.675c0.953,0 1.674,-0.722 1.674,-1.675l0,-8.9c0.839,-0.693 1.938,-1.242 2.834,-1.242c1.561,0 2.4,0.664 2.4,2.658l0,7.484c0,0.953 0.721,1.675 1.674,1.675c0.952,0 1.674,-0.722 1.674,-1.675l0,-7.484c0,-3.87 -1.905,-5.428 -5.025,-5.428c-1.157,0 -2.776,0.605 -4.047,1.875l-0.173,-0.691c-0.174,-0.607 -0.635,-1.04 -1.53,-1.04c-1.01,0 -1.501,0.751 -1.501,1.589c0,0.635 0.346,1.357 0.346,2.773l0,8.406Z" style="fill:#fff;fill-rule:nonzero;"/><path d="M297.606,46.27l-1.647,0c-0.78,0 -1.387,0.635 -1.387,1.414c0,0.751 0.607,1.386 1.387,1.386l1.647,0l0,8.556l-1.445,0c-0.751,0 -1.358,0.606 -1.358,1.385c0,0.779 0.607,1.385 1.358,1.385l7.74,0c0.78,0 1.358,-0.606 1.358,-1.385c0,-0.779 -0.578,-1.385 -1.358,-1.385l-2.947,0l0,-8.556l3.525,0c0.78,0 1.358,-0.635 1.358,-1.386c0,-0.779 -0.578,-1.414 -1.358,-1.414l-3.525,0l0,-1.301c0,-1.909 0.664,-2.747 2.022,-2.747c0.549,0 1.012,0.144 1.474,0.376c0.347,0.115 0.693,0.231 1.069,0.231c0.838,0 1.329,-0.665 1.329,-1.329c0,-0.461 -0.289,-0.923 -0.78,-1.269c-0.838,-0.549 -2.369,-0.837 -3.381,-0.837c-3.58,0 -5.081,2.655 -5.081,5.575l0,1.301Z" style="fill:#fff;fill-rule:nonzero;"/><path d="M307.776,53.348c0,4.104 2.31,7.337 6.558,7.337c4.248,0 6.528,-3.233 6.528,-7.337c0,-4.163 -2.338,-7.366 -6.528,-7.366c-4.191,0 -6.558,3.203 -6.558,7.366Zm6.558,4.596c-1.908,0 -3.181,-1.764 -3.181,-4.596c0,-2.862 1.273,-4.596 3.181,-4.596c1.937,0 3.18,1.734 3.18,4.596c0,2.832 -1.243,4.596 -3.18,4.596Z" style="fill:#fff;fill-rule:nonzero;"/><path d="M323.148,58.982c0,0.779 0.607,1.414 1.387,1.414l7.942,0c0.781,0 1.387,-0.606 1.387,-1.385c0,-0.779 -0.606,-1.385 -1.387,-1.385l-2.542,0l0,-7.169c0.838,-0.578 2.369,-1.358 3.496,-1.474l0.289,1.908c0.115,0.694 0.578,1.243 1.445,1.243c0.78,0 1.473,-0.636 1.386,-1.561l-0.288,-3.264c-0.058,-0.808 -0.752,-1.327 -1.705,-1.327c-1.849,0 -3.843,0.836 -5.403,1.933l-0.173,-0.75c-0.144,-0.491 -0.548,-0.895 -1.097,-0.895l-3.292,0c-0.78,0 -1.387,0.635 -1.387,1.414c0,0.78 0.607,1.386 1.387,1.386l1.994,0l0,8.556l-2.052,0c-0.78,0 -1.387,0.577 -1.387,1.356Z" style="fill:#fff;fill-rule:nonzero;"/><path d="M353.371,54.444l0,2.227c-0.896,0.81 -2.081,1.273 -2.891,1.273c-1.417,0 -2.226,-0.666 -2.226,-1.707c0,-1.215 0.867,-1.793 2.515,-1.793l2.602,0Zm0,-2.279l-2.717,0c-3.526,0 -5.662,1.529 -5.662,4.217c0,2.485 1.761,4.303 4.505,4.303c1.735,0 3.238,-0.693 4.365,-1.847l0.173,0.662c0.231,0.636 0.606,1.041 1.53,1.041c1.01,0 1.472,-0.723 1.472,-1.59c0,-0.635 -0.317,-1.213 -0.317,-2.86l0,-4.91c0,-2.314 -0.895,-5.199 -5.742,-5.199c-1.327,0 -2.946,0.259 -3.872,0.807c-0.637,0.404 -0.926,0.693 -1.042,1.732l-0.087,0.751c-0.086,0.926 0.492,1.649 1.477,1.649c0.781,0 1.389,-0.434 1.476,-1.099l0.087,-0.752c0.519,-0.231 1.182,-0.318 1.759,-0.318c2.076,0 2.595,1.157 2.595,2.429l0,0.984Z" style="fill:#fff;fill-rule:nonzero;"/><path d="M361,58.894c0,0.953 0.721,1.675 1.674,1.675c0.952,0 1.674,-0.722 1.674,-1.675l0,-8.9c0.838,-0.693 1.937,-1.242 2.833,-1.242c1.562,0 2.4,0.664 2.4,2.658l0,7.484c0,0.953 0.722,1.675 1.674,1.675c0.953,0 1.674,-0.722 1.674,-1.675l0,-7.484c0,-3.87 -1.905,-5.428 -5.025,-5.428c-1.156,0 -2.776,0.605 -4.047,1.875l-0.173,-0.691c-0.173,-0.607 -0.635,-1.04 -1.53,-1.04c-1.01,0 -1.501,0.751 -1.501,1.589c0,0.635 0.347,1.357 0.347,2.773l0,8.406Z" style="fill:#fff;fill-rule:nonzero;"/><path d="M384.941,50.313c0.116,0.954 0.695,1.503 1.534,1.503c0.985,0 1.563,-0.781 1.448,-1.908l-0.116,-1.07c-0.087,-0.923 -0.29,-1.327 -1.013,-1.818c-0.984,-0.663 -2.545,-1.038 -3.786,-1.038c-4.241,0 -6.723,2.799 -6.723,7.366c0,4.249 2.28,7.337 6.723,7.337c1.01,0 2.86,-0.26 3.988,-0.808c0.55,-0.288 0.955,-0.692 0.955,-1.356c0,-0.606 -0.405,-1.271 -1.302,-1.271c-0.434,0 -1.1,0.231 -1.679,0.376c-0.52,0.144 -1.327,0.318 -1.962,0.318c-2.308,0 -3.375,-1.879 -3.375,-4.596c0,-2.833 1.067,-4.596 3.375,-4.596c0.577,0 1.269,0.173 1.789,0.433l0.144,1.128Z" style="fill:#fff;fill-rule:nonzero;"/><path d="M391.338,58.894c0,0.953 0.722,1.675 1.674,1.675c0.953,0 1.675,-0.722 1.675,-1.675l0,-8.9c0.838,-0.693 1.966,-1.242 2.862,-1.242c1.532,0 2.4,0.664 2.4,2.658l0,7.484c0,0.953 0.693,1.675 1.674,1.675c0.952,0 1.674,-0.722 1.674,-1.675l0,-7.484c0,-3.87 -1.876,-5.428 -4.794,-5.428c-1.388,0 -2.66,0.49 -3.816,1.413l0,-6.325c0,-0.954 -0.722,-1.676 -1.675,-1.676c-0.952,0 -1.674,0.722 -1.674,1.676l0,17.824Z" style="fill:#fff;fill-rule:nonzero;"/><path d="M406.623,53.348c0,4.104 2.31,7.337 6.558,7.337c4.248,0 6.528,-3.233 6.528,-7.337c0,-4.163 -2.338,-7.366 -6.528,-7.366c-4.191,0 -6.558,3.203 -6.558,7.366Zm6.558,4.596c-1.908,0 -3.181,-1.764 -3.181,-4.596c0,-2.862 1.273,-4.596 3.181,-4.596c1.937,0 3.18,1.734 3.18,4.596c0,2.832 -1.243,4.596 -3.18,4.596Z" style="fill:#fff;fill-rule:nonzero;"/><path d="M421.995,58.982c0,0.779 0.607,1.414 1.387,1.414l7.942,0c0.781,0 1.387,-0.606 1.387,-1.385c0,-0.779 -0.606,-1.385 -1.387,-1.385l-2.542,0l0,-7.169c0.838,-0.578 2.369,-1.358 3.496,-1.474l0.289,1.908c0.115,0.694 0.578,1.243 1.445,1.243c0.78,0 1.473,-0.636 1.386,-1.561l-0.288,-3.264c-0.058,-0.808 -0.752,-1.327 -1.705,-1.327c-1.849,0 -3.843,0.836 -5.403,1.933l-0.173,-0.75c-0.144,-0.491 -0.548,-0.895 -1.097,-0.895l-3.292,0c-0.78,0 -1.387,0.635 -1.387,1.414c0,0.78 0.607,1.386 1.387,1.386l1.994,0l0,8.556l-2.052,0c-0.78,0 -1.387,0.577 -1.387,1.356Z" style="fill:#fff;fill-rule:nonzero;"/><path d="M437.078,59.011c0,0.779 0.607,1.385 1.387,1.385l7.711,0c0.751,0 1.358,-0.606 1.358,-1.385c0,-0.779 -0.607,-1.385 -1.358,-1.385l-2.196,0l0,-9.942c0,-0.779 -0.606,-1.414 -1.385,-1.414l-4.072,0c-0.781,0 -1.387,0.635 -1.387,1.414c0,0.78 0.606,1.386 1.387,1.386l2.109,0l0,8.556l-2.167,0c-0.78,0 -1.387,0.606 -1.387,1.385Zm4.563,-14.825c1.126,0 2.05,-0.894 2.05,-2.049c0,-1.126 -0.924,-2.021 -2.05,-2.021c-1.125,0 -2.049,0.895 -2.049,2.021c0,1.155 0.924,2.049 2.049,2.049Z" style="fill:#fff;fill-rule:nonzero;"/><path d="M450.08,58.894c0,0.953 0.722,1.675 1.674,1.675c0.953,0 1.674,-0.722 1.674,-1.675l0,-8.9c0.839,-0.693 1.938,-1.242 2.834,-1.242c1.561,0 2.4,0.664 2.4,2.658l0,7.484c0,0.953 0.721,1.675 1.674,1.675c0.952,0 1.674,-0.722 1.674,-1.675l0,-7.484c0,-3.87 -1.905,-5.428 -5.025,-5.428c-1.157,0 -2.776,0.605 -4.047,1.875l-0.173,-0.691c-0.174,-0.607 -0.635,-1.04 -1.53,-1.04c-1.01,0 -1.501,0.751 -1.501,1.589c0,0.635 0.346,1.357 0.346,2.773l0,8.406Z" style="fill:#fff;fill-rule:nonzero;"/><path d="M473.975,46.501c-0.751,-0.317 -1.619,-0.519 -2.717,-0.519c-3.785,0 -5.662,2.019 -5.662,4.91c0,1.359 0.433,2.457 1.27,3.236c-0.808,0.664 -1.125,1.587 -1.125,2.397c0,1.214 0.693,2.746 3.435,3.122l3.498,0.462c1.272,0.174 2.024,0.781 2.024,1.706c0,0.925 -0.809,1.85 -3.296,1.85c-1.358,0 -2.977,-0.347 -3.758,-0.723l-0.115,-1.069c-0.087,-0.868 -0.837,-1.301 -1.587,-1.301c-0.982,0 -1.472,0.751 -1.386,1.647l0.116,1.157c0.086,0.722 0.404,1.385 1.096,1.818c1.155,0.75 3.842,1.154 5.692,1.154c4.191,0 6.673,-1.846 6.673,-4.562c0,-2.197 -1.559,-3.729 -4.794,-4.163l-3.18,-0.405c-0.896,-0.115 -1.388,-0.375 -1.388,-1.011c0,-0.289 0.116,-0.578 0.405,-0.867c0.607,0.231 1.33,0.346 2.082,0.346c3.785,0 5.69,-2.077 5.69,-4.823c0,-0.926 -0.259,-1.735 -0.635,-2.4l1.675,-1.212c0.261,-0.173 0.636,-0.606 0.636,-1.183c0,-0.635 -0.491,-1.473 -1.445,-1.473c-0.433,0 -0.664,0.144 -0.866,0.289l-2.338,1.617Zm-2.717,2.251c1.475,0 2.313,0.838 2.313,2.082c0,1.215 -0.838,2.111 -2.313,2.111c-1.446,0 -2.285,-0.896 -2.285,-2.111c0,-1.244 0.839,-2.082 2.285,-2.082Z" style="fill:#fff;fill-rule:nonzero;"/></g></g></svg>