<?xml version="1.0" encoding="UTF-8" standalone="no"?><!DOCTYPE svg PUBLIC "-//W3C//DTD SVG 1.1//EN" "http://www.w3.org/Graphics/SVG/1.1/DTD/svg11.dtd"><svg width="100%" height="100%" viewBox="0 0 616 128" version="1.1" xmlns="http://www.w3.org/2000/svg" xmlns:xlink="http://www.w3.org/1999/xlink" xml:space="preserve" xmlns:serif="http://www.serif.com/" style="fill-rule:evenodd;clip-rule:evenodd;stroke-linejoin:round;stroke-miterlimit:2;"><rect x="5.015" y="55.027" width="575.03" height="16.419" style="fill:#e6e7e8;stroke:#000;stroke-width:7.15px;"/><rect x="5.016" y="55.028" width="575.03" height="16.418" style="fill:none;stroke:#231f20;stroke-width:0.89px;stroke-linejoin:miter;stroke-miterlimit:10;"/><path d="M5.015,9.727l0,24.171" style="fill:none;fill-rule:nonzero;stroke:#fff;stroke-width:1px;stroke-linejoin:miter;stroke-miterlimit:10;"/><path d="M580.046,9.727l0,24.171" style="fill:none;fill-rule:nonzero;stroke:#fff;stroke-width:1px;stroke-linejoin:miter;stroke-miterlimit:10;"/><path d="M7.43,13.831l570.202,0" style="fill:none;fill-rule:nonzero;stroke:#fff;stroke-width:1px;stroke-linejoin:miter;stroke-miterlimit:10;"/><path d="M5.016,13.831l3.402,1.391l-0.807,-1.391l0.807,-1.39l-3.402,1.39Z" style="fill:#939598;fill-rule:nonzero;"/><path d="M580.046,13.831l-3.402,1.392l0.808,-1.392l-0.808,-1.391l3.402,1.391Z" style="fill:#939598;fill-rule:nonzero;"/><path d="M72.305,92.577l0,29.643" style="fill:none;fill-rule:nonzero;stroke:#fff;stroke-width:1px;stroke-linejoin:miter;stroke-miterlimit:10;"/><path d="M5.015,92.577l0,29.643" style="fill:none;fill-rule:nonzero;stroke:#fff;stroke-width:1px;stroke-linejoin:miter;stroke-miterlimit:10;"/><path d="M7.43,119.473l62.46,0" style="fill:none;fill-rule:nonzero;stroke:#fff;stroke-width:0.84px;stroke-linejoin:miter;stroke-miterlimit:10;"/><path d="M5.016,119.473l3.402,1.39l-0.807,-1.39l0.807,-1.39l-3.402,1.39Z" style="fill:#939598;fill-rule:nonzero;"/><path d="M69.709,119.473l-0.807,1.39l3.403,-1.39l-3.403,-1.39l0.807,1.39Z" style="fill:#939598;fill-rule:nonzero;"/><path d="M318.978,92.577l0,29.643" style="fill:none;fill-rule:nonzero;stroke:#fff;stroke-width:1px;stroke-linejoin:miter;stroke-miterlimit:10;"/><path d="M251.687,92.577l0,29.643" style="fill:none;fill-rule:nonzero;stroke:#fff;stroke-width:1px;stroke-linejoin:miter;stroke-miterlimit:10;"/><path d="M254.102,119.473l62.46,0" style="fill:none;fill-rule:nonzero;stroke:#fff;stroke-width:0.84px;stroke-linejoin:miter;stroke-miterlimit:10;"/><path d="M251.687,119.473l3.404,1.39l-0.809,-1.39l0.809,-1.39l-3.404,1.39Z" style="fill:#939598;fill-rule:nonzero;"/><path d="M316.382,119.473l-0.807,1.39l3.402,-1.39l-3.402,-1.39l0.807,1.39Z" style="fill:#939598;fill-rule:nonzero;"/><path d="M580.046,92.577l0,29.643" style="fill:none;fill-rule:nonzero;stroke:#fff;stroke-width:1px;stroke-linejoin:miter;stroke-miterlimit:10;"/><path d="M512.756,92.577l0,29.643" style="fill:none;fill-rule:nonzero;stroke:#fff;stroke-width:1px;stroke-linejoin:miter;stroke-miterlimit:10;"/><path d="M515.172,119.473l62.459,0" style="fill:none;fill-rule:nonzero;stroke:#fff;stroke-width:0.84px;stroke-linejoin:miter;stroke-miterlimit:10;"/><path d="M512.756,119.473l3.404,1.39l-0.809,-1.39l0.809,-1.39l-3.404,1.39Z" style="fill:#939598;fill-rule:nonzero;"/><path d="M577.451,119.473l-0.807,1.39l3.401,-1.39l-3.401,-1.39l0.807,1.39Z" style="fill:#939598;fill-rule:nonzero;"/><path d="M282.755,7.287c0,0.492 0.396,0.888 0.888,0.888l1.513,0c1.958,0 3.757,-0.936 3.757,-4.082c0,-3.133 -1.607,-4.093 -3.733,-4.093l-1.537,0c-0.492,0 -0.888,0.408 -0.888,0.888l0,6.399Zm1.788,-0.695l0,-5.009l0.637,0c1.165,0 1.958,0.397 1.958,2.51c0,2.09 -0.817,2.499 -1.982,2.499l-0.613,0Z" style="fill:#fff;fill-rule:nonzero;"/><path d="M40.5,107.381l0.072,0.48c0.084,0.553 0.444,0.805 0.852,0.805c0.444,0 0.816,-0.276 0.768,-0.973l-0.024,-0.36c-0.048,-0.768 -0.408,-1.2 -1.008,-1.464c-0.408,-0.18 -1.056,-0.348 -1.741,-0.348c-2.389,0 -3.373,2.016 -3.373,4.238c0,2.306 1.056,4.177 3.445,4.177c0.697,0 1.789,-0.156 2.317,-0.528c0.312,-0.215 0.396,-0.479 0.396,-0.719c0,-0.42 -0.276,-0.78 -0.756,-0.78c-0.276,0 -0.516,0.12 -0.804,0.228c-0.264,0.096 -0.612,0.18 -0.997,0.18c-1.369,0 -1.826,-1.081 -1.826,-2.51c0,-1.417 0.457,-2.666 1.67,-2.666c0.337,0 0.745,0.096 1.009,0.24Z" style="fill:#fff;fill-rule:nonzero;"/><path d="M287.172,107.381l0.072,0.48c0.084,0.553 0.444,0.805 0.852,0.805c0.444,0 0.816,-0.276 0.768,-0.973l-0.024,-0.36c-0.048,-0.768 -0.408,-1.2 -1.008,-1.464c-0.408,-0.18 -1.056,-0.348 -1.741,-0.348c-2.389,0 -3.373,2.016 -3.373,4.238c0,2.306 1.056,4.177 3.445,4.177c0.697,0 1.789,-0.156 2.317,-0.528c0.312,-0.215 0.396,-0.479 0.396,-0.719c0,-0.42 -0.276,-0.78 -0.756,-0.78c-0.276,0 -0.516,0.12 -0.804,0.228c-0.264,0.096 -0.612,0.18 -0.997,0.18c-1.369,0 -1.826,-1.081 -1.826,-2.51c0,-1.417 0.457,-2.666 1.67,-2.666c0.337,0 0.745,0.096 1.009,0.24Z" style="fill:#fff;fill-rule:nonzero;"/><path d="M548.241,107.381l0.072,0.48c0.084,0.553 0.444,0.805 0.852,0.805c0.444,0 0.816,-0.276 0.768,-0.973l-0.024,-0.36c-0.048,-0.768 -0.408,-1.2 -1.008,-1.464c-0.408,-0.18 -1.056,-0.348 -1.741,-0.348c-2.389,0 -3.373,2.016 -3.373,4.238c0,2.306 1.056,4.177 3.445,4.177c0.697,0 1.789,-0.156 2.317,-0.528c0.312,-0.215 0.396,-0.479 0.396,-0.719c0,-0.42 -0.276,-0.78 -0.756,-0.78c-0.276,0 -0.516,0.12 -0.804,0.228c-0.264,0.096 -0.612,0.18 -0.997,0.18c-1.369,0 -1.826,-1.081 -1.826,-2.51c0,-1.417 0.457,-2.666 1.67,-2.666c0.337,0 0.745,0.096 1.009,0.24Z" style="fill:#fff;fill-rule:nonzero;"/><rect x="5.015" y="52.748" width="67.289" height="20.978" style="fill:#bbbdc0;stroke:#000;stroke-width:7.15px;"/><rect x="5.015" y="52.748" width="67.29" height="20.978" style="fill:none;stroke:#231f20;stroke-width:0.81px;stroke-linejoin:miter;stroke-miterlimit:10;"/><rect x="5.015" y="36.33" width="67.289" height="16.418" style="fill:#bbbdc0;stroke:#000;stroke-width:7.15px;"/><rect x="5.015" y="36.33" width="67.29" height="16.418" style="fill:none;stroke:#231f20;stroke-width:0.72px;stroke-linejoin:miter;stroke-miterlimit:10;"/><rect x="5.015" y="73.726" width="67.289" height="16.418" style="fill:#bbbdc0;stroke:#000;stroke-width:7.15px;"/><rect x="5.015" y="73.726" width="67.29" height="16.418" style="fill:none;stroke:#231f20;stroke-width:0.72px;stroke-linejoin:miter;stroke-miterlimit:10;"/><rect x="512.756" y="52.748" width="67.29" height="20.978" style="fill:#bbbdc0;stroke:#231f20;stroke-width:7.15px;stroke-linejoin:miter;stroke-miterlimit:10;"/><rect x="512.756" y="36.33" width="67.29" height="16.418" style="fill:#bbbdc0;stroke:#231f20;stroke-width:7.15px;stroke-linejoin:miter;stroke-miterlimit:10;"/><rect x="512.756" y="73.726" width="67.29" height="16.418" style="fill:#bbbdc0;stroke:#231f20;stroke-width:7.15px;stroke-linejoin:miter;stroke-miterlimit:10;"/><rect x="251.687" y="52.748" width="67.29" height="20.978" style="fill:#bbbdc0;stroke:#231f20;stroke-width:7.15px;stroke-linejoin:miter;stroke-miterlimit:10;"/><rect x="251.687" y="36.33" width="67.29" height="16.418" style="fill:#bbbdc0;stroke:#231f20;stroke-width:7.15px;stroke-linejoin:miter;stroke-miterlimit:10;"/><rect x="251.687" y="73.726" width="67.29" height="16.418" style="fill:#bbbdc0;stroke:#231f20;stroke-width:7.15px;stroke-linejoin:miter;stroke-miterlimit:10;"/></svg>