<?xml version="1.0" encoding="UTF-8" standalone="no"?>
<!DOCTYPE svg PUBLIC "-//W3C//DTD SVG 1.1//EN" "http://www.w3.org/Graphics/SVG/1.1/DTD/svg11.dtd">
<svg width="100%" height="100%" viewBox="0 0 174 21" version="1.1" xmlns="http://www.w3.org/2000/svg" xmlns:xlink="http://www.w3.org/1999/xlink" xml:space="preserve" xmlns:serif="http://www.serif.com/" style="fill-rule:evenodd;clip-rule:evenodd;stroke-linejoin:round;stroke-miterlimit:2;">
    <g transform="matrix(1,0,0,1,-2.4505,-0.88039)">
        <g transform="matrix(1.047,0,0,1.047,35.7746,1.18036)">
            <path d="M0,18.988C-0.655,18.988 -1.177,18.772 -1.641,18.308C-2.104,17.843 -2.321,17.322 -2.321,16.667L-2.321,2.349C-2.321,1.655 -2.109,1.12 -1.655,0.666C-1.201,0.212 -0.665,0 0.029,0L7.846,0C8.384,0 8.814,0.179 9.201,0.566C9.587,0.952 9.767,1.373 9.767,1.891C9.767,2.41 9.578,2.841 9.172,3.245C8.777,3.602 8.336,3.784 7.817,3.784L3.322,3.784C2.77,3.784 2.322,4.231 2.322,4.784L2.322,6.817C2.322,7.37 2.77,7.817 3.322,7.817L7.13,7.817C7.642,7.817 8.051,7.993 8.416,8.371C8.79,8.759 8.965,9.183 8.965,9.709C8.965,10.24 8.798,10.649 8.44,10.994C8.071,11.349 7.646,11.515 7.102,11.515L3.322,11.515C2.77,11.515 2.322,11.963 2.322,12.515L2.322,16.667C2.322,17.321 2.105,17.843 1.641,18.308C1.177,18.772 0.655,18.988 0,18.988" style="fill:white;fill-rule:nonzero;"/>
        </g>
        <g transform="matrix(1.047,0,0,1.047,50.855,0.970746)">
            <path d="M0,19.074C-0.652,19.074 -1.168,18.859 -1.621,18.398C-2.073,17.94 -2.293,17.393 -2.293,16.724L-2.293,2.293C-2.293,1.657 -2.077,1.144 -1.612,0.681C-1.148,0.216 -0.627,0 0.028,0C0.664,0 1.177,0.216 1.64,0.68C2.105,1.144 2.321,1.666 2.321,2.321L2.321,16.781C2.321,17.43 2.104,17.944 1.637,18.398C1.162,18.859 0.642,19.074 0,19.074" style="fill:white;fill-rule:nonzero;"/>
        </g>
        <g transform="matrix(1.047,0,0,1.047,71.0312,0.970746)">
            <path d="M0,19.074C-0.803,19.074 -1.507,18.617 -2.153,17.676L-5.127,13.272C-5.313,12.997 -5.624,12.832 -5.956,12.832C-6.288,12.832 -6.599,12.997 -6.785,13.272L-9.763,17.682C-10.405,18.616 -11.11,19.074 -11.912,19.074C-12.337,19.074 -12.722,18.95 -13.087,18.696C-13.49,18.416 -13.782,18.113 -13.954,17.797C-14.123,17.484 -14.205,17.136 -14.205,16.728C-14.205,16.261 -14.046,15.821 -13.718,15.385L-9.006,9.366C-8.71,8.989 -8.724,8.456 -9.038,8.094L-12.789,3.776C-13.184,3.328 -13.374,2.824 -13.374,2.23C-13.374,1.529 -13.113,0.997 -12.554,0.557C-12.09,0.178 -11.641,0 -11.167,0C-10.382,0 -9.648,0.458 -8.925,1.401L-6.748,4.22C-6.559,4.466 -6.266,4.609 -5.956,4.609C-5.646,4.609 -5.354,4.466 -5.165,4.22L-2.988,1.403C-2.263,0.458 -1.529,0 -0.744,0C-0.29,0 0.149,0.178 0.599,0.546C0.898,0.775 1.101,1.023 1.242,1.325C1.391,1.642 1.463,1.948 1.463,2.26C1.463,2.506 1.414,2.769 1.318,3.044C1.228,3.302 1.081,3.546 0.883,3.769L-2.9,8.091C-3.217,8.453 -3.231,8.988 -2.935,9.366L1.79,15.4C2.105,15.821 2.265,16.28 2.265,16.786C2.265,17.563 1.936,18.158 1.228,18.656C0.826,18.936 0.424,19.074 0,19.074" style="fill:white;fill-rule:nonzero;"/>
        </g>
        <g transform="matrix(1.047,0,0,1.047,82.1832,16.8286)">
            <path d="M0,-11.076C-0.553,-11.076 -1,-10.629 -1,-10.076L-1,-6.984C-1,-6.431 -0.553,-5.984 0,-5.984L2.635,-5.984C3.336,-5.984 3.967,-6.244 4.458,-6.735C4.968,-7.244 5.238,-7.875 5.238,-8.558C5.238,-9.235 4.961,-9.853 4.436,-10.347C3.93,-10.823 3.307,-11.076 2.635,-11.076L0,-11.076ZM-3.293,3.87C-3.94,3.87 -4.457,3.646 -4.919,3.164C-5.387,2.676 -5.614,2.121 -5.614,1.468L-5.614,-12.344C-5.614,-13.179 -5.404,-13.813 -4.974,-14.285C-4.562,-14.736 -4.036,-14.946 -3.321,-14.946L2.835,-14.946C4.914,-14.946 6.551,-14.343 7.84,-13.102C9.117,-11.873 9.738,-10.382 9.738,-8.545C9.738,-6.847 9.216,-5.478 8.142,-4.36C7.047,-3.221 5.601,-2.558 3.719,-2.336L2.509,-2.255L0,-2.257C-0.553,-2.257 -1,-1.809 -1,-1.257L-1,1.552C-1,2.248 -1.212,2.777 -1.667,3.214C-2.126,3.655 -2.657,3.87 -3.293,3.87" style="fill:white;fill-rule:nonzero;"/>
        </g>
        <g transform="matrix(1.047,0,0,1.047,101.31,17.0993)">
            <path d="M0,-11.478C-0.553,-11.478 -1,-11.031 -1,-10.478L-1,-8.015C-1,-7.462 -0.553,-7.015 0,-7.015L2.749,-7.015C3.398,-7.015 3.963,-7.265 4.384,-7.737C4.8,-8.206 4.983,-8.801 4.918,-9.46C4.923,-9.95 4.713,-10.472 4.314,-10.87C3.917,-11.268 3.415,-11.478 2.863,-11.478L0,-11.478ZM7.253,3.727C6.453,3.727 5.741,3.259 5.078,2.297L0.829,-3.994C0.64,-4.274 0.326,-4.434 0,-4.434C-0.098,-4.434 -0.196,-4.42 -0.293,-4.39C-0.713,-4.261 -1,-3.874 -1,-3.434L-1,1.439C-1,2.102 -1.209,2.62 -1.657,3.068C-2.105,3.518 -2.63,3.727 -3.308,3.727C-3.948,3.727 -4.463,3.509 -4.93,3.043C-5.397,2.578 -5.614,2.045 -5.614,1.368L-5.614,-12.731C-5.614,-13.561 -5.416,-14.168 -5.008,-14.59C-4.608,-15.004 -4.039,-15.205 -3.265,-15.205L3.007,-15.205C4.771,-15.205 6.209,-14.819 7.281,-14.058C8.335,-13.31 9.007,-12.27 9.335,-10.878C9.469,-10.292 9.537,-9.75 9.537,-9.275C9.537,-8.501 9.396,-7.789 9.12,-7.156C8.843,-6.523 8.454,-5.992 7.93,-5.531L7.815,-5.418L6.798,-4.621C6.369,-4.284 6.289,-3.665 6.619,-3.23L9.053,-0.023C9.4,0.422 9.565,0.895 9.565,1.434C9.565,2.217 9.254,2.805 8.584,3.284C8.165,3.582 7.729,3.727 7.253,3.727" style="fill:white;fill-rule:nonzero;"/>
        </g>
        <g transform="matrix(1.047,0,0,1.047,124.934,17.0398)">
            <path d="M0,-11.679C-1.521,-11.679 -2.822,-11.115 -3.865,-10.002C-4.891,-8.908 -5.41,-7.507 -5.41,-5.839C-5.41,-4.17 -4.891,-2.77 -3.865,-1.677C-2.823,-0.565 -1.533,0 -0.029,0C0.324,0 0.68,-0.035 1.027,-0.106C2.313,-0.363 3.385,-1.031 4.211,-2.089C5.025,-3.135 5.438,-4.387 5.438,-5.811C5.438,-6.15 5.404,-6.516 5.338,-6.899C5.112,-8.296 4.498,-9.456 3.516,-10.336C2.518,-11.228 1.335,-11.679 0,-11.679M0,3.755C-1.662,3.755 -3.232,3.379 -4.666,2.636C-6.096,1.895 -7.293,0.837 -8.227,-0.51C-9.398,-2.189 -9.967,-3.931 -9.967,-5.839C-9.967,-7.748 -9.398,-9.491 -8.229,-11.166C-7.314,-12.478 -6.114,-13.528 -4.662,-14.288C-3.211,-15.048 -1.642,-15.434 0,-15.434C1.662,-15.434 3.232,-15.058 4.665,-14.316C6.096,-13.575 7.294,-12.516 8.226,-11.169C9.398,-9.505 9.967,-7.764 9.967,-5.839C9.967,-3.914 9.398,-2.173 8.23,-0.517C7.309,0.84 6.117,1.895 4.682,2.635C3.238,3.378 1.663,3.755 0,3.755" style="fill:white;fill-rule:nonzero;"/>
        </g>
        <g transform="matrix(1.047,0,0,1.047,141.363,1.18036)">
            <path d="M0,18.988C-0.655,18.988 -1.177,18.772 -1.642,18.307C-2.105,17.843 -2.321,17.322 -2.321,16.667L-2.321,2.349C-2.321,1.655 -2.109,1.12 -1.655,0.666C-1.201,0.212 -0.666,0 0.028,0L7.846,0C8.384,0 8.814,0.179 9.2,0.565C9.586,0.952 9.767,1.374 9.767,1.891C9.767,2.41 9.577,2.84 9.172,3.246C8.783,3.596 8.328,3.784 7.817,3.784L3.321,3.784C2.769,3.784 2.321,4.231 2.321,4.784L2.321,6.817C2.321,7.37 2.769,7.817 3.321,7.817L7.13,7.817C7.642,7.817 8.05,7.993 8.415,8.371C8.79,8.759 8.965,9.184 8.965,9.709C8.965,10.24 8.798,10.648 8.439,10.994C8.07,11.349 7.646,11.515 7.102,11.515L3.321,11.515C2.769,11.515 2.321,11.963 2.321,12.515L2.321,16.667C2.321,17.322 2.104,17.843 1.641,18.308C1.176,18.772 0.654,18.988 0,18.988" style="fill:white;fill-rule:nonzero;"/>
        </g>
        <g transform="matrix(1.047,0,0,1.047,156.444,0.970746)">
            <path d="M0,19.074C-0.652,19.074 -1.168,18.859 -1.621,18.398C-2.073,17.94 -2.293,17.393 -2.293,16.724L-2.293,2.293C-2.293,1.657 -2.077,1.144 -1.613,0.68C-1.148,0.217 -0.627,0 0.028,0C0.664,0 1.176,0.217 1.641,0.68C2.099,1.138 2.321,1.676 2.321,2.321L2.321,16.781C2.321,17.43 2.104,17.944 1.637,18.397C1.168,18.852 0.633,19.074 0,19.074" style="fill:white;fill-rule:nonzero;"/>
        </g>
        <g transform="matrix(1.047,0,0,1.047,165.287,0.970851)">
            <path d="M0,18.816C-0.757,18.816 -1.342,18.592 -1.789,18.132C-2.244,17.665 -2.465,17.046 -2.465,16.242L-2.465,2.316C-2.465,1.663 -2.249,1.142 -1.784,0.679C-1.572,0.467 -1.324,0.304 -1.024,0.182C-0.724,0.059 -0.435,0 -0.144,0C0.51,0 1.029,0.218 1.494,0.688C1.961,1.162 2.179,1.688 2.179,2.343L2.179,14.118C2.179,14.67 2.626,15.118 3.179,15.118L8.018,15.118C8.548,15.118 8.956,15.285 9.302,15.643C9.657,16.012 9.823,16.446 9.823,17.01C9.823,17.529 9.657,17.936 9.3,18.295C8.944,18.65 8.536,18.816 8.018,18.816L0,18.816Z" style="fill:white;fill-rule:nonzero;"/>
        </g>
        <g transform="matrix(1.047,0,0,1.047,21.5532,1.0522)">
            <path d="M0,10.462C-1.24,10.462 -2.25,9.452 -2.25,8.212L-2.25,5.5C-2.25,4.947 -2.697,4.5 -3.25,4.5L-7.927,4.5C-8.479,4.5 -8.927,4.947 -8.927,5.5L-8.927,8.212C-8.927,9.452 -9.937,10.462 -11.177,10.462C-12.417,10.462 -13.427,9.452 -13.427,8.212L-13.427,2.25C-13.427,1.01 -12.417,0 -11.177,0L0,0C1.24,0 2.25,1.01 2.25,2.25L2.25,8.212C2.25,9.452 1.24,10.462 0,10.462" style="fill:white;fill-rule:nonzero;"/>
        </g>
        <g transform="matrix(1.047,0,0,1.047,4.80625,16.3575)">
            <path d="M0,4.5C-1.24,4.5 -2.25,3.49 -2.25,2.25C-2.25,1.01 -1.24,0 0,0L20.813,0C22.054,0 23.063,1.01 23.063,2.25C23.063,3.49 22.054,4.5 20.813,4.5L0,4.5Z" style="fill:white;fill-rule:nonzero;"/>
        </g>
    </g>
</svg>
