<?xml version="1.0" encoding="UTF-8" standalone="no"?><!DOCTYPE svg PUBLIC "-//W3C//DTD SVG 1.1//EN" "http://www.w3.org/Graphics/SVG/1.1/DTD/svg11.dtd"><svg width="100%" height="100%" viewBox="0 0 10938 1217" version="1.1" xmlns="http://www.w3.org/2000/svg" xmlns:xlink="http://www.w3.org/1999/xlink" xml:space="preserve" xmlns:serif="http://www.serif.com/" style="fill-rule:evenodd;clip-rule:evenodd;stroke-linejoin:round;stroke-miterlimit:2;"><g><path d="M917.067,572.517c-17.534,0 -31.513,-5.779 -43.942,-18.213c-12.396,-12.446 -18.212,-26.387 -18.212,-43.921l0,-383.316c0,-18.58 5.679,-32.9 17.829,-45.055c12.171,-12.15 26.512,-17.829 45.087,-17.829l209.271,0c14.413,0 25.921,4.792 36.288,15.159c10.329,10.329 15.154,21.595 15.154,35.466c0,13.888 -5.071,25.434 -15.938,36.25c-10.571,9.55 -22.379,14.429 -36.266,14.429l-120.346,0c-14.775,0 -26.771,11.959 -26.771,26.771l0,54.425c0,14.809 11.996,26.771 26.771,26.771l101.941,0c13.717,0 24.671,4.704 34.43,14.825c10.016,10.383 14.704,21.738 14.704,35.817c0,14.221 -4.479,25.175 -14.063,34.412c-9.879,9.496 -21.25,13.938 -35.816,13.938l-101.196,0c-14.775,0 -26.771,12 -26.771,26.771l0,111.166c0,17.5 -5.8,31.475 -18.229,43.921c-12.417,12.433 -26.392,18.213 -43.925,18.213" style="fill:#1c4685;fill-rule:nonzero;"/><path d="M1302.66,569.463c-17.45,0 -31.271,-5.763 -43.404,-18.109c-12.1,-12.258 -17.987,-26.891 -17.987,-44.808l0,-386.338c0,-17.029 5.783,-30.762 18.229,-43.158c12.429,-12.45 26.371,-18.229 43.908,-18.229c17.029,0 30.763,5.779 43.159,18.192c12.445,12.433 18.229,26.408 18.229,43.941l0,387.121c0,17.375 -5.8,31.125 -18.317,43.279c-12.708,12.346 -26.633,18.109 -43.821,18.109" style="fill:#1c4685;fill-rule:nonzero;"/><path d="M1818.56,569.463c-21.491,0 -40.345,-12.242 -57.637,-37.43l-79.617,-117.9c-4.983,-7.362 -13.3,-11.787 -22.187,-11.787c-8.892,0 -17.225,4.425 -22.209,11.787l-79.72,118.054c-17.188,25.017 -36.059,37.275 -57.534,37.275c-11.375,0 -21.683,-3.316 -31.458,-10.12c-10.783,-7.5 -18.596,-15.609 -23.213,-24.063c-4.516,-8.387 -6.72,-17.708 -6.72,-28.629c0,-12.5 4.27,-24.287 13.041,-35.954l126.146,-161.129c7.933,-10.105 7.55,-24.375 -0.854,-34.063l-100.417,-115.592c-10.571,-11.995 -15.658,-25.483 -15.658,-41.387c0,-18.767 6.979,-33.021 21.946,-44.792c12.429,-10.158 24.441,-14.912 37.133,-14.912c21.025,0 40.679,12.254 60.017,37.5l58.283,75.466c5.067,6.6 12.917,10.417 21.213,10.417c8.3,0 16.112,-3.817 21.166,-10.417l58.279,-75.416c19.409,-25.296 39.063,-37.55 60.088,-37.55c12.154,0 23.904,4.754 35.954,14.616c8.004,6.13 13.438,12.763 17.204,20.85c3.996,8.492 5.921,16.684 5.921,25.038c0,6.579 -1.3,13.625 -3.871,20.987c-2.412,6.909 -6.354,13.438 -11.65,19.409l-101.283,115.712c-8.492,9.688 -8.854,24.013 -0.938,34.134l126.492,161.529c8.438,11.266 12.725,23.558 12.725,37.116c0,20.801 -8.8,36.717 -27.758,50.051c-10.767,7.5 -21.529,11.199 -32.884,11.199" style="fill:#1c4685;fill-rule:nonzero;"/><path d="M2103.72,167.779c-14.809,0 -26.771,11.959 -26.771,26.771l0,82.775c0,14.813 11.962,26.771 26.771,26.771l70.537,0c18.767,0 35.659,-6.959 48.8,-20.104c13.667,-13.625 20.888,-30.521 20.888,-48.8c0,-18.125 -7.413,-34.671 -21.475,-47.9c-13.542,-12.742 -30.229,-19.513 -48.213,-19.513l-70.537,0Zm-88.163,400.121c-17.325,0 -31.162,-5.992 -43.525,-18.892c-12.533,-13.071 -18.608,-27.933 -18.608,-45.416l0,-369.755c0,-22.362 5.625,-39.325 17.133,-51.962c11.025,-12.083 25.104,-17.708 44.254,-17.708l164.809,0c55.645,0 99.479,16.145 133.975,49.375c34.204,32.9 50.816,72.812 50.816,121.995c0,45.455 -13.975,82.101 -42.725,112.034c-29.304,30.504 -68.021,48.246 -118.404,54.2l-32.392,2.154l-67.17,-0.054c-14.813,0 -26.771,11.996 -26.771,26.771l0,75.208c0,18.629 -5.679,32.796 -17.867,44.496c-12.291,11.808 -26.491,17.554 -43.525,17.554" style="fill:#fff;fill-rule:nonzero;"/><path d="M2592.8,163.942c-14.809,0 -26.771,11.962 -26.771,26.77l0,65.938c0,14.808 11.963,26.771 26.771,26.771l73.592,0c17.379,0 32.499,-6.7 43.77,-19.325c11.142,-12.567 16.042,-28.488 14.304,-46.129c0.121,-13.125 -5.504,-27.1 -16.179,-37.759c-10.625,-10.641 -24.062,-16.266 -38.837,-16.266l-76.65,0Zm194.166,407.066c-21.408,0 -40.47,-12.537 -58.229,-38.3l-113.75,-168.421c-5.054,-7.483 -13.454,-11.77 -22.187,-11.77c-2.621,0 -5.242,0.383 -7.846,1.183c-11.25,3.454 -18.925,13.817 -18.925,25.587l0,130.45c0,17.763 -5.608,31.634 -17.588,43.613c-11.995,12.05 -26.058,17.658 -44.2,17.658c-17.137,0 -30.92,-5.854 -43.42,-18.316c-12.517,-12.45 -18.317,-26.721 -18.317,-44.846l0,-377.446c0,-22.225 5.296,-38.475 16.217,-49.775c10.708,-11.075 25.937,-16.458 46.666,-16.458l167.917,0c47.221,0 85.712,10.329 114.408,30.696c28.229,20.033 46.217,47.879 55,85.137c3.575,15.696 5.4,30.192 5.4,42.917c0,20.712 -3.766,39.775 -11.162,56.737c-7.417,16.942 -17.829,31.146 -31.859,43.488l-3.075,3.037l-27.22,21.338c-11.492,9.012 -13.63,25.591 -4.792,37.241l65.154,85.85c9.292,11.909 13.7,24.584 13.7,39.009c0,20.954 -8.317,36.704 -26.25,49.516c-11.217,7.984 -22.9,11.875 -35.642,11.875" style="fill:#fff;fill-rule:nonzero;"/><path d="M3196.86,157.033c-40.729,-0.004 -75.554,15.1 -103.47,44.896c-27.467,29.288 -41.376,66.804 -41.376,111.458c0.001,44.667 13.909,82.15 41.371,111.421c27.884,29.775 62.434,44.896 102.692,44.896c9.446,0 18.975,-0.937 28.267,-2.846c34.425,-6.875 63.125,-24.758 85.241,-53.091c21.788,-27.984 32.846,-61.509 32.846,-99.634c0,-9.083 -0.9,-18.87 -2.671,-29.133c-6.041,-37.396 -22.483,-68.454 -48.787,-92.013c-26.7,-23.875 -58.383,-35.958 -94.113,-35.958m0,413.196c-44.495,0 -86.529,-10.067 -124.933,-29.946c-38.279,-19.846 -70.313,-48.179 -95.329,-84.237c-31.334,-44.946 -46.579,-91.58 -46.579,-142.659c0,-51.108 15.245,-97.775 46.529,-142.621c24.496,-35.12 56.629,-63.229 95.504,-83.575c38.833,-20.345 80.85,-30.675 124.808,-30.675c44.496,0 86.53,10.067 124.88,29.93c38.316,19.841 70.379,48.195 95.329,84.254c31.387,44.546 46.612,91.146 46.612,142.691c0,51.525 -15.225,98.142 -46.491,142.48c-24.671,36.32 -56.58,64.566 -95,84.375c-38.646,19.895 -80.817,29.983 -125.33,29.983" style="fill:#fff;fill-rule:nonzero;"/><path d="M3616.93,572.517c-17.537,0 -31.512,-5.779 -43.958,-18.23c-12.4,-12.429 -18.179,-26.37 -18.179,-43.904l0,-383.316c0,-18.58 5.679,-32.9 17.829,-45.055c12.154,-12.15 26.475,-17.829 45.071,-17.829l209.287,0c14.409,0 25.921,4.792 36.25,15.121c10.329,10.367 15.192,21.65 15.192,35.504c0,13.888 -5.088,25.4 -15.938,36.267c-10.416,9.375 -22.587,14.413 -36.266,14.413l-120.367,0c-14.792,0 -26.771,11.958 -26.771,26.77l0,54.425c0,14.809 11.979,26.771 26.771,26.771l101.963,0c13.716,0 24.637,4.704 34.408,14.825c10.037,10.383 14.725,21.771 14.725,35.817c0,14.221 -4.479,25.142 -14.083,34.412c-9.875,9.496 -21.23,13.938 -35.796,13.938l-101.217,0c-14.792,0 -26.771,12 -26.771,26.771l0,111.166c0,17.534 -5.816,31.475 -18.212,43.921c-12.446,12.434 -26.421,18.213 -43.942,18.213" style="fill:#fff;fill-rule:nonzero;"/><path d="M4002.53,569.463c-17.445,0 -31.266,-5.763 -43.4,-18.109c-12.1,-12.258 -17.987,-26.891 -17.987,-44.808l0,-386.338c0,-17.029 5.783,-30.762 18.212,-43.195c12.446,-12.396 26.388,-18.192 43.925,-18.192c17.03,0 30.729,5.796 43.175,18.191c12.275,12.276 18.213,26.667 18.213,43.942l0,387.121c0,17.375 -5.817,31.125 -18.317,43.263c-12.554,12.17 -26.875,18.125 -43.821,18.125" style="fill:#fff;fill-rule:nonzero;"/><path d="M4228.67,562.554c-20.259,0 -35.921,-5.991 -47.884,-18.316c-12.187,-12.5 -18.108,-29.063 -18.108,-50.592l0,-372.813c0,-17.483 5.783,-31.441 18.229,-43.837c5.679,-5.675 12.329,-10.033 20.35,-13.3c8.038,-3.296 15.779,-4.875 23.559,-4.875c17.516,0 31.404,5.833 43.854,18.417c12.5,12.691 18.35,26.77 18.35,44.308l0,315.242c0,14.775 11.962,26.77 26.77,26.77l129.55,0c14.184,0 25.105,4.463 34.375,14.046c9.496,9.879 13.942,21.513 13.942,36.596c0,13.908 -4.446,24.792 -14.012,34.413c-9.53,9.495 -20.45,13.941 -34.305,13.941l-214.67,0Z" style="fill:#fff;fill-rule:nonzero;"/><path d="M553.421,371.996c-33.196,0 -60.242,-27.046 -60.242,-60.242l0,-103.612c0,-14.809 -11.962,-26.771 -26.771,-26.771l-125.212,0c-14.771,0 -26.771,11.962 -26.771,26.771l0,103.612c0,33.196 -27.029,60.242 -60.225,60.242c-33.192,0 -60.242,-27.046 -60.242,-60.242l0,-190.608c0,-33.213 27.05,-60.242 60.242,-60.242l299.221,0c33.192,0 60.241,27.029 60.241,60.242l0,190.608c0,33.196 -27.049,60.242 -60.241,60.242" style="fill:#fff;fill-rule:nonzero;"/><path d="M125.208,572.725c-33.195,0 -60.241,-27.029 -60.241,-60.242c0,-33.195 27.046,-60.225 60.241,-60.225l557.188,0c33.229,0 60.242,27.029 60.242,60.225c0,33.213 -27.013,60.242 -60.242,60.242l-557.188,0Z" style="fill:#fff;fill-rule:nonzero;"/></g><g><path d="M915.175,875.467l81.771,0c5.6,0 9.725,-2.65 9.725,-13.255c0,-42.524 -17.975,-66.691 -56.058,-66.691c-38.976,0 -60.192,27.712 -60.192,73.762c0,44.58 20.925,74.655 65.212,74.655c10.334,0 27.463,-2.355 38.367,-7.659c4.713,-2.65 9.133,-5.304 9.133,-10.604c0,-4.721 -3.537,-9.45 -10.02,-9.45c-4.713,0 -9.134,2.071 -14.446,3.546c-7.088,2.067 -14.767,3.842 -23.034,3.842c-28.941,0 -40.458,-20.971 -40.458,-48.146Zm0,-17.079c1.479,-23.042 12.404,-42.538 35.438,-42.538c24.508,0 32.483,17.721 33.07,42.538l-68.508,0Z" style="fill:#fff;fill-rule:nonzero;"/><path d="M1033.56,930.675c-0.001,5.6 4.429,10.313 10.329,10.313l76.404,0c5.904,0 10.333,-4.713 10.333,-10.313c0,-5.892 -4.429,-10.604 -10.333,-10.604l-25.675,0l0,-110.992c0,-5.891 -4.717,-10.608 -10.608,-10.608l-39.234,0c-5.904,0 -10.329,4.716 -10.329,10.608c0,5.596 4.425,10.017 10.329,10.017l25.088,0l0,100.975l-25.975,0c-5.9,0 -10.33,4.712 -10.33,10.604Zm42.188,-155.85c9.729,0 17.396,-7.667 17.396,-17.396c0,-9.729 -7.667,-17.396 -17.396,-17.396c-9.729,0 -17.396,7.667 -17.396,17.396c0,9.729 7.667,17.396 17.396,17.396Z" style="fill:#fff;fill-rule:nonzero;"/><path d="M1159.88,930.067c0,7.083 5.6,12.396 12.375,12.396c7.075,0 12.38,-5.313 12.38,-12.396l0,-98.575c10.633,-8.854 23.92,-15.642 34.845,-15.642c20.084,0 28.646,10.917 28.646,33.35l0,80.867c0,7.083 5.304,12.396 12.379,12.396c7.071,0 12.375,-5.313 12.375,-12.396l0,-80.867c0,-40.129 -19.745,-53.679 -48.379,-53.679c-13.287,0 -29.825,7.071 -42.812,18.854l-2.063,-9.117c-1.475,-4.721 -4.716,-8.262 -11.496,-8.262c-7.366,0 -10.908,5.312 -10.908,11.804c0,4.425 2.658,12.392 2.658,25.375l0,95.892Z" style="fill:#fff;fill-rule:nonzero;"/><path d="M1336.93,875.467l81.771,0c5.596,0 9.721,-2.65 9.721,-13.255c0,-42.524 -17.971,-66.691 -56.054,-66.691c-38.975,0 -60.192,27.712 -60.192,73.762c0,44.58 20.925,74.655 65.208,74.655c10.338,0 27.463,-2.355 38.367,-7.659c4.717,-2.65 9.138,-5.304 9.138,-10.604c0,-4.721 -3.538,-9.45 -10.021,-9.45c-4.713,0 -9.134,2.071 -14.45,3.546c-7.088,2.067 -14.763,3.842 -23.034,3.842c-28.937,0 -40.454,-20.971 -40.454,-48.146Zm0,-17.079c1.475,-23.042 12.404,-42.538 35.438,-42.538c24.508,0 32.479,17.721 33.071,42.538l-68.509,0Z" style="fill:#fff;fill-rule:nonzero;"/><path d="M1582.5,814.963c8.563,0 17.129,2.066 25.4,5.316c5.013,2.067 8.846,4.134 12.971,4.134c6.483,0 9.725,-4.725 9.725,-9.45c0,-5.009 -3.833,-8.542 -9.429,-11.192c-9.725,-5.008 -28.625,-8.25 -40.442,-8.25c-24.216,0 -48.675,13.254 -48.675,40.7c0,28.637 28.3,37.2 47.2,42.808c18.017,5.609 31.013,10.334 31.013,23.917c0,12.4 -10.042,21.254 -28.355,21.254c-9.154,0 -19.195,-2.067 -27.462,-5.017c-5.6,-1.77 -10.021,-3.837 -14.146,-3.837c-7.071,0 -10.317,5.017 -10.317,10.329c0,4.125 2.363,7.658 9.138,10.604c11.2,5.009 30.975,7.659 43.083,7.659c29.238,0 52.813,-15.021 52.813,-41.584c0,-27.458 -23.871,-35.725 -46.021,-42.516c-17.129,-5.313 -32.192,-10.334 -32.192,-24.8c0,-10.921 7.975,-20.076 25.696,-20.076Z" style="fill:#fff;fill-rule:nonzero;"/><path d="M1686.7,819.096l0,77.058c0,26.867 14.442,47.784 42.759,47.784c6.495,0 18.595,-1.471 27.154,-6.775c4.133,-2.946 5.904,-6.188 5.904,-10.017c0,-6.192 -4.429,-10.029 -9.742,-10.029c-5.608,0 -9.442,5.904 -20.362,5.904c-11.809,0 -20.954,-6.2 -20.954,-26.571l0,-77.354l35.708,0c5.904,0 10.333,-4.421 10.333,-10.017c0,-5.891 -4.429,-10.608 -10.333,-10.608l-35.708,0l0,-32.167c0,-7.083 -5.309,-12.396 -12.38,-12.396c-7.07,0 -12.379,5.313 -12.379,12.396l0,32.167l-20.658,0c-5.904,0 -10.329,4.717 -10.329,10.608c0,5.596 4.425,10.017 10.329,10.017l20.658,0Z" style="fill:#fff;fill-rule:nonzero;"/><path d="M1781.15,930.675c0,5.6 4.429,10.313 10.329,10.313l76.404,0c5.904,0 10.329,-4.713 10.329,-10.313c0,-5.892 -4.425,-10.604 -10.329,-10.604l-25.675,0l0,-110.992c0,-5.891 -4.716,-10.608 -10.608,-10.608l-39.233,0c-5.904,0 -10.33,4.716 -10.33,10.608c0,5.596 4.426,10.017 10.33,10.017l25.087,0l0,100.975l-25.975,0c-5.9,0 -10.329,4.712 -10.329,10.604Zm42.187,-155.85c9.73,0 17.396,-7.667 17.396,-17.396c0,-9.729 -7.666,-17.396 -17.396,-17.396c-9.729,0 -17.395,7.667 -17.395,17.396c0,9.729 7.666,17.396 17.395,17.396Z" style="fill:#fff;fill-rule:nonzero;"/><path d="M1888.29,930.675c0,5.6 4.425,10.313 10.033,10.313l76.404,0c5.904,0 10.329,-4.713 10.329,-10.313c0,-5.892 -4.425,-10.604 -10.329,-10.604l-25.679,0l0,-178.284c0,-5.599 -4.713,-10.608 -10.608,-10.608l-39.234,0c-5.9,0 -10.329,4.717 -10.329,10.608c0,5.596 4.429,10.313 10.329,10.313l25.088,0l0,167.971l-25.971,0c-5.608,0 -10.033,4.712 -10.033,10.604Z" style="fill:#fff;fill-rule:nonzero;"/><path d="M2033.19,924.463c2.654,8.262 8.262,18 23.012,18c14.754,0 20.654,-9.738 23.308,-18l35.704,-107.992c0.588,-2.067 1.475,-5.313 1.475,-7.079c0,-7.084 -5.312,-12.396 -12.1,-12.396c-5.604,0 -10.62,3.541 -11.8,8.558l-35.995,113.333l-0.884,0l-35.996,-113.333c-1.479,-5.017 -6.491,-8.558 -11.804,-8.558c-7.079,0 -12.391,5.312 -12.391,12.396c0,1.77 0.883,5.016 1.475,7.083l35.995,107.987Z" style="fill:#fff;fill-rule:nonzero;"/><path d="M2141.22,869.879c0,42.217 22.396,74.058 63.142,74.058c41.037,0 63.141,-31.841 63.141,-74.058c0,-42.812 -22.691,-74.358 -63.141,-74.358c-40.155,0 -63.142,31.546 -63.142,74.358Zm63.142,53.438c-24.213,0 -38.388,-22.146 -38.388,-53.438c0,-32.183 14.175,-54.029 38.388,-54.029c24.212,0 38.383,21.846 38.383,54.029c0,31.292 -14.171,53.438 -38.383,53.438Z" style="fill:#fff;fill-rule:nonzero;"/><path d="M2286.43,930.675c0,5.6 4.425,10.313 10.034,10.313l76.404,0c5.904,0 10.329,-4.713 10.329,-10.313c0,-5.892 -4.425,-10.604 -10.329,-10.604l-25.675,0l0,-178.284c0,-5.599 -4.717,-10.608 -10.613,-10.608l-39.229,0c-5.904,0 -10.333,4.717 -10.333,10.608c0,5.596 4.429,10.313 10.333,10.313l25.083,0l0,167.971l-25.97,0c-5.609,0 -10.034,4.712 -10.034,10.604Z" style="fill:#fff;fill-rule:nonzero;"/><path d="M2393.27,930.675c0,5.6 4.429,10.313 10.037,10.313l76.404,0c5.9,0 10.33,-4.713 10.33,-10.313c0,-5.892 -4.43,-10.604 -10.33,-10.604l-25.679,0l0,-178.284c0,-5.599 -4.712,-10.608 -10.608,-10.608l-39.233,0c-5.9,0 -10.33,4.717 -10.33,10.608c0,5.596 4.43,10.313 10.33,10.313l25.087,0l0,167.971l-25.971,0c-5.608,0 -10.037,4.712 -10.037,10.604Z" style="fill:#fff;fill-rule:nonzero;"/><path d="M2534.01,875.467l81.77,0c5.596,0 9.721,-2.65 9.721,-13.255c0,-42.524 -17.971,-66.691 -56.054,-66.691c-38.975,0 -60.192,27.712 -60.192,73.762c0,44.58 20.925,74.655 65.209,74.655c10.337,0 27.462,-2.355 38.366,-7.659c4.717,-2.65 9.138,-5.304 9.138,-10.604c0,-4.721 -3.538,-9.45 -10.021,-9.45c-4.712,0 -9.133,2.071 -14.45,3.546c-7.087,2.067 -14.762,3.842 -23.033,3.842c-28.938,0 -40.454,-20.971 -40.454,-48.146Zm0,-17.079c1.475,-23.042 12.404,-42.538 35.437,-42.538c24.508,0 32.479,17.721 33.071,42.538l-68.508,0Z" style="fill:#fff;fill-rule:nonzero;"/><path d="M2737.99,928.613c0,7.07 5.304,12.375 12.375,12.375l84.096,0c6.2,0 11.216,-5.009 11.216,-10.901c0,-6.191 -5.016,-11.2 -11.216,-11.2l-71.717,0l0,-163.504c0,-7.083 -5.304,-12.396 -12.379,-12.396c-7.071,0 -12.375,5.313 -12.375,12.396l0,173.229Z" style="fill:#fff;fill-rule:nonzero;"/><path d="M2863.72,869.879c0,42.217 22.396,74.058 63.142,74.058c41.037,0 63.141,-31.841 63.141,-74.058c0,-42.812 -22.691,-74.358 -63.141,-74.358c-40.155,0 -63.142,31.546 -63.142,74.358Zm63.142,53.438c-24.213,0 -38.388,-22.146 -38.388,-53.438c0,-32.183 14.175,-54.029 38.388,-54.029c24.212,0 38.383,21.846 38.383,54.029c0,31.292 -14.171,53.438 -38.383,53.438Zm25.97,-149.379c8.846,0 15.921,-6.78 15.921,-15.625c0,-9.138 -7.371,-16.213 -16.216,-16.213c-8.546,0 -15.33,7.075 -15.33,16.213c0,8.845 7.075,15.625 15.625,15.625Zm-51.65,0c8.55,0 15.625,-6.78 15.625,-15.625c0,-9.138 -7.37,-16.213 -15.92,-16.213c-8.546,0 -15.621,7.075 -15.621,16.213c0,8.845 7.366,15.625 15.916,15.625Z" style="fill:#fff;fill-rule:nonzero;"/><path d="M3073.55,814.963c8.562,0 17.129,2.066 25.4,5.316c5.012,2.067 8.846,4.134 12.971,4.134c6.483,0 9.725,-4.725 9.725,-9.45c0,-5.009 -3.834,-8.542 -9.43,-11.192c-9.725,-5.008 -28.625,-8.25 -40.441,-8.25c-24.217,0 -48.675,13.254 -48.675,40.7c0,28.637 28.3,37.2 47.2,42.808c18.016,5.609 31.012,10.334 31.012,23.917c0,12.4 -10.041,21.254 -28.354,21.254c-9.154,0 -19.196,-2.067 -27.462,-5.017c-5.6,-1.77 -10.021,-3.837 -14.146,-3.837c-7.071,0 -10.317,5.017 -10.317,10.329c0,4.125 2.363,7.658 9.138,10.604c11.2,5.009 30.975,7.659 43.083,7.659c29.237,0 52.812,-15.021 52.812,-41.584c0,-27.458 -23.87,-35.725 -46.02,-42.516c-17.13,-5.313 -32.192,-10.334 -32.192,-24.8c0,-10.921 7.975,-20.076 25.696,-20.076Z" style="fill:#fff;fill-rule:nonzero;"/><path d="M3251.24,907.971c-10.338,8.558 -23.625,15.346 -34.551,15.346c-20.379,0 -28.645,-10.625 -28.645,-33.054l0,-80.871c0,-7.084 -5.305,-12.396 -12.38,-12.396c-7.07,0 -12.375,5.312 -12.375,12.396l0,80.871c0,40.125 19.155,53.675 46.9,53.675c15.655,0 31.305,-7.071 44.292,-18.855l2.063,9.117c1.766,4.721 4.716,8.263 11.491,8.263c7.075,0 10.909,-5.313 10.909,-11.509c0,-4.721 -2.95,-12.687 -2.95,-25.375l0,-96.187c0,-7.084 -5.305,-12.396 -12.38,-12.396c-6.774,0 -12.375,5.312 -12.375,12.396l0,98.579Z" style="fill:#fff;fill-rule:nonzero;"/><path d="M3324.72,930.067c0,7.083 5.6,12.396 12.379,12.396c7.071,0 12.379,-5.313 12.379,-12.396l0,-98.575c10.63,-8.854 23.917,-15.642 34.846,-15.642c20.079,0 28.646,10.917 28.646,33.35l0,80.867c0,7.083 5.304,12.396 12.375,12.396c7.075,0 12.379,-5.313 12.379,-12.396l0,-80.867c0,-40.129 -19.746,-53.679 -48.379,-53.679c-13.292,0 -29.829,7.071 -42.817,18.854l-2.062,-9.117c-1.471,-4.721 -4.713,-8.262 -11.492,-8.262c-7.366,0 -10.908,5.312 -10.908,11.804c0,4.425 2.654,12.392 2.654,25.375l0,95.892Z" style="fill:#fff;fill-rule:nonzero;"/><path d="M3575.3,814.079c-13.284,-11.783 -28.638,-18.558 -43.108,-18.558c-37.488,0 -55.171,33.021 -55.171,74.65c0,43.696 20.633,73.766 62.258,73.766c14.471,0 25.692,-4.416 33.075,-7.658l0,11.204c0,23.638 -13.292,33.092 -35.733,33.092c-8.563,0 -16.538,-1.775 -23.034,-4.137c-4.429,-1.184 -9.445,-3.546 -13.87,-3.546c-7.075,0 -10.317,4.725 -10.317,10.037c0,3.829 1.767,6.775 5.896,9.134c9.729,5.595 26.562,8.837 41.325,8.837c37.204,0 60.487,-16.496 60.487,-56.371l0,-110.375c0,-12.954 2.95,-20.629 2.95,-25.646c0,-6.2 -3.833,-11.512 -11.496,-11.512c-5.895,0 -9.725,3.246 -10.904,8.267l-2.358,8.816Zm-2.946,101.563c-7.679,3.837 -16.833,7.675 -29.533,7.675c-28.05,0 -40.75,-18.888 -40.75,-52.829c0,-32.792 10.633,-54.638 35.141,-54.638c8.563,0 21.85,3.838 35.142,15.646l0,84.146Z" style="fill:#fff;fill-rule:nonzero;"/><path d="M3735.27,798.471l-21.25,0c-5.905,0 -10.334,4.421 -10.334,10.312c0,5.892 4.429,10.313 10.334,10.313l21.25,0l0,100.975l-18.596,0c-5.904,0 -10.329,4.712 -10.329,10.604c0,5.6 4.425,10.313 10.329,10.313l79.062,0c5.9,0 10.33,-4.713 10.33,-10.313c0,-5.892 -4.43,-10.604 -10.33,-10.604l-35.712,0l0,-100.975l41.612,0c5.905,0 10.33,-4.421 10.33,-10.313c0,-5.891 -4.425,-10.312 -10.33,-10.312l-41.612,0l0,-15.358c0,-24.517 9.442,-32.492 23.608,-32.492c7.379,0 12.692,1.775 18.3,5.025c2.95,1.179 5.609,2.067 8.263,2.067c6.2,0 10.037,-4.726 10.037,-9.742c0,-3.829 -2.066,-7.071 -5.608,-9.429c-7.675,-5.3 -21.25,-8.838 -32.763,-8.838c-32.741,0 -46.591,23.575 -46.591,54l0,14.767Z" style="fill:#fff;fill-rule:nonzero;"/><path d="M3929.76,907.971c-10.338,8.558 -23.625,15.346 -34.555,15.346c-20.375,0 -28.641,-10.625 -28.641,-33.054l0,-80.871c0,-7.084 -5.309,-12.396 -12.379,-12.396c-7.071,0 -12.38,5.312 -12.38,12.396l0,80.871c0,40.125 19.159,53.675 46.905,53.675c15.654,0 31.304,-7.071 44.291,-18.855l2.063,9.117c1.766,4.721 4.716,8.263 11.491,8.263c7.075,0 10.909,-5.313 10.909,-11.509c0,-4.721 -2.95,-12.687 -2.95,-25.375l0,-96.187c0,-7.084 -5.305,-12.396 -12.38,-12.396c-6.774,0 -12.375,5.312 -12.375,12.396l0,98.579Zm-5.92,-134.033c8.841,0 15.916,-6.78 15.916,-15.625c0,-9.138 -7.371,-16.213 -16.212,-16.213c-8.55,0 -15.329,7.075 -15.329,16.213c0,8.845 7.075,15.625 15.625,15.625Zm-51.65,0c8.55,0 15.625,-6.78 15.625,-15.625c0,-9.138 -7.371,-16.213 -15.921,-16.213c-8.55,0 -15.625,7.075 -15.625,16.213c0,8.845 7.371,15.625 15.921,15.625Z" style="fill:#fff;fill-rule:nonzero;"/><path d="M3990.56,930.379c0,5.896 4.43,10.609 10.334,10.609l81.421,0c5.9,0 10.329,-4.713 10.329,-10.313c0,-5.892 -4.429,-10.604 -10.329,-10.604l-33.35,0l0,-85.329c9.145,-6.788 30.691,-16.534 44.858,-17.417l3.542,25.979c0.887,5.021 4.429,9.45 10.92,9.45c5.905,0 10.921,-4.725 10.33,-11.812l-2.95,-35.404c-0.592,-6.188 -5.905,-10.017 -12.692,-10.017c-20.954,0 -41.909,8.546 -58.725,19.446l-2.063,-9.129c-0.883,-4.125 -4.125,-7.367 -8.546,-7.367l-31.862,0c-5.904,0 -10.329,4.717 -10.329,10.608c0,5.596 4.425,10.017 10.329,10.017l22.429,0l0,100.975l-23.312,0c-5.905,0 -10.334,4.712 -10.334,10.308Z" style="fill:#fff;fill-rule:nonzero;"/><path d="M4310.5,803.179c-7.383,-3.237 -18.604,-7.658 -31.008,-7.658c-43.692,0 -64.321,30.071 -64.321,74.062c0,47.238 21.808,74.355 55.758,74.355c13.879,0 29.234,-6.775 42.517,-18.559l2.358,8.821c1.179,4.721 4.717,8.263 11.2,8.263c7.367,0 10.904,-5.313 10.904,-11.509c0,-4.725 -2.654,-12.691 -2.654,-25.383l0,-163.471c0,-7.083 -5.304,-12.396 -12.379,-12.396c-7.071,0 -12.375,5.313 -12.375,12.396l0,61.079Zm0,104.784c-13.288,11.812 -26.875,15.354 -35.142,15.354c-24.804,0 -35.137,-21.85 -35.137,-53.734c0,-31.591 10.925,-53.733 39.566,-53.733c11.813,0 23.626,4.129 30.713,7.675l0,84.438Z" style="fill:#fff;fill-rule:nonzero;"/><path d="M4371.58,930.675c0,5.6 4.43,10.313 10.329,10.313l76.405,0c5.904,0 10.333,-4.713 10.333,-10.313c0,-5.892 -4.429,-10.604 -10.333,-10.604l-25.675,0l0,-110.992c0,-5.891 -4.717,-10.608 -10.609,-10.608l-39.233,0c-5.904,0 -10.329,4.716 -10.329,10.608c0,5.596 4.425,10.017 10.329,10.017l25.088,0l0,100.975l-25.975,0c-5.9,0 -10.33,4.712 -10.33,10.604Zm42.188,-155.85c9.729,0 17.396,-7.667 17.396,-17.396c0,-9.729 -7.667,-17.396 -17.396,-17.396c-9.729,0 -17.396,7.667 -17.396,17.396c0,9.729 7.667,17.396 17.396,17.396Z" style="fill:#fff;fill-rule:nonzero;"/><path d="M4512.63,875.467l81.767,0c5.6,0 9.725,-2.65 9.725,-13.255c0,-42.524 -17.975,-66.691 -56.059,-66.691c-38.97,0 -60.187,27.712 -60.187,73.762c0,44.58 20.921,74.655 65.208,74.655c10.338,0 27.463,-2.355 38.367,-7.659c4.717,-2.65 9.133,-5.304 9.133,-10.604c0,-4.721 -3.533,-9.45 -10.016,-9.45c-4.717,0 -9.134,2.071 -14.45,3.546c-7.088,2.067 -14.767,3.842 -23.034,3.842c-28.937,0 -40.454,-20.971 -40.454,-48.146Zm0,-17.079c1.475,-23.042 12.4,-42.538 35.433,-42.538c24.513,0 32.484,17.721 33.075,42.538l-68.508,0Z" style="fill:#fff;fill-rule:nonzero;"/><path d="M4838.75,760.988c0.883,-2.659 1.179,-4.43 1.179,-5.905c0,-6.787 -5.608,-12.096 -12.391,-12.096c-5.609,0 -10.33,3.246 -11.805,8.851l-46.621,168.529l-0.883,0l-46.917,-168.525c-1.475,-5.609 -6.491,-8.855 -12.095,-8.855c-6.788,0 -12.392,5.313 -12.392,12.101c0,1.475 0.292,3.245 1.179,5.904l47.208,162.612c3.542,12.967 11.509,18.859 23.017,18.859c12.392,0 19.767,-5.596 23.308,-18.859l47.213,-162.616Z" style="fill:#fff;fill-rule:nonzero;"/><path d="M4883.33,875.467l81.771,0c5.6,0 9.725,-2.65 9.725,-13.255c0,-42.524 -17.975,-66.691 -56.058,-66.691c-38.971,0 -60.192,27.712 -60.192,73.762c0,44.58 20.925,74.655 65.213,74.655c10.333,0 27.462,-2.355 38.366,-7.659c4.713,-2.65 9.134,-5.304 9.134,-10.604c0,-4.721 -3.538,-9.45 -10.017,-9.45c-4.717,0 -9.137,2.071 -14.45,3.546c-7.087,2.067 -14.767,3.842 -23.033,3.842c-28.942,0 -40.459,-20.971 -40.459,-48.146Zm0,-17.079c1.479,-23.042 12.405,-42.538 35.438,-42.538c24.508,0 32.483,17.721 33.075,42.538l-68.513,0Z" style="fill:#fff;fill-rule:nonzero;"/><path d="M5001.71,930.379c0,5.896 4.43,10.609 10.334,10.609l81.421,0c5.899,0 10.329,-4.713 10.329,-10.313c0,-5.892 -4.43,-10.604 -10.329,-10.604l-33.35,0l0,-85.329c9.145,-6.788 30.691,-16.534 44.858,-17.417l3.542,25.979c0.887,5.021 4.429,9.45 10.92,9.45c5.904,0 10.921,-4.725 10.33,-11.812l-2.95,-35.404c-0.592,-6.188 -5.905,-10.017 -12.692,-10.017c-20.954,0 -41.909,8.546 -58.725,19.446l-2.063,-9.129c-0.883,-4.125 -4.125,-7.367 -8.545,-7.367l-31.863,0c-5.904,0 -10.329,4.717 -10.329,10.608c0,5.596 4.425,10.017 10.329,10.017l22.429,0l0,100.975l-23.312,0c-5.904,0 -10.334,4.712 -10.334,10.308Z" style="fill:#fff;fill-rule:nonzero;"/><path d="M5236.04,907.958c-12.109,10.925 -26.284,15.359 -36.325,15.359c-16.829,0 -26.575,-8.567 -26.575,-23.042c0,-14.767 10.629,-22.742 31.3,-22.742l31.6,0l0,30.425Zm0,-48.095l-32.484,0c-34.25,0 -54.583,15.312 -54.583,41.891c0,25.688 17.979,42.184 45.725,42.184c18.9,0 34.55,-8.838 44.583,-18.267l2.063,8.529c1.179,4.425 4.716,8.263 11.2,8.263c7.367,0 11.204,-5.017 11.204,-10.921c0,-5.313 -2.954,-10.921 -2.954,-27.742l0,-58.117c0,-25.404 -12.375,-50.162 -53.992,-50.162c-11.221,0 -28.35,2.358 -38.967,7.658c-5.6,2.946 -8.545,5.892 -8.545,10.313c0,5.016 3.533,10.037 10.312,10.037c3.833,0 8.558,-2.066 13.575,-3.546c7.088,-2.362 14.471,-4.133 21.558,-4.133c23.921,0 31.305,13.292 31.305,29.833l0,14.18Z" style="fill:#fff;fill-rule:nonzero;"/><path d="M5308.67,930.067c0,7.083 5.6,12.396 12.379,12.396c7.071,0 12.375,-5.313 12.375,-12.396l0,-98.575c10.633,-8.854 23.921,-15.642 34.846,-15.642c20.083,0 28.646,10.917 28.646,33.35l0,80.867c0,7.083 5.304,12.396 12.379,12.396c7.071,0 12.375,-5.313 12.375,-12.396l0,-80.867c0,-40.129 -19.742,-53.679 -48.379,-53.679c-13.288,0 -29.825,7.071 -42.813,18.854l-2.062,-9.117c-1.475,-4.721 -4.717,-8.262 -11.496,-8.262c-7.367,0 -10.904,5.312 -10.904,11.804c0,4.425 2.654,12.392 2.654,25.375l0,95.892Z" style="fill:#fff;fill-rule:nonzero;"/><path d="M5468.63,930.067c0,7.083 5.304,12.396 12.375,12.396c6.779,0 12.379,-5.313 12.379,-12.396l0,-53.717l22.725,0l41.321,61.096c1.771,2.95 5.9,5.017 9.738,5.017c7.083,0 12.691,-4.721 12.691,-11.217c0,-2.654 -1.179,-5.313 -2.362,-7.375l-40.138,-58.125l35.713,-50.154c1.179,-2.067 2.066,-4.429 2.066,-7.084c0,-6.495 -5.608,-11.512 -12.395,-11.512c-4.725,0 -7.971,1.771 -10.33,5.312l-36.304,54.013l-22.725,0l0,-113.925c0,-6.788 -5.6,-12.396 -12.379,-12.396c-7.071,0 -12.375,5.312 -12.375,12.396l0,187.671Z" style="fill:#fff;fill-rule:nonzero;"/><path d="M5627.96,875.467l81.771,0c5.596,0 9.721,-2.65 9.721,-13.255c0,-42.524 -17.975,-66.691 -56.058,-66.691c-38.971,0 -60.188,27.712 -60.188,73.762c0,44.58 20.921,74.655 65.209,74.655c10.337,0 27.462,-2.355 38.366,-7.659c4.717,-2.65 9.138,-5.304 9.138,-10.604c0,-4.721 -3.538,-9.45 -10.021,-9.45c-4.713,0 -9.133,2.071 -14.45,3.546c-7.088,2.067 -14.763,3.842 -23.033,3.842c-28.938,0 -40.455,-20.971 -40.455,-48.146Zm0,-17.079c1.475,-23.042 12.405,-42.538 35.434,-42.538c24.512,0 32.483,17.721 33.075,42.538l-68.509,0Z" style="fill:#fff;fill-rule:nonzero;"/><path d="M5746.33,930.379c0,5.896 4.425,10.609 10.329,10.609l81.421,0c5.904,0 10.329,-4.713 10.329,-10.313c0.001,-5.892 -4.425,-10.604 -10.329,-10.604l-33.35,0l0,-85.329c9.15,-6.788 30.696,-16.534 44.863,-17.417l3.541,25.979c0.884,5.021 4.425,9.45 10.921,9.45c5.9,0 10.917,-4.725 10.329,-11.812l-2.954,-35.404c-0.587,-6.188 -5.9,-10.017 -12.687,-10.017c-20.959,0 -41.913,8.546 -58.729,19.446l-2.063,-9.129c-0.883,-4.125 -4.125,-7.367 -8.546,-7.367l-31.858,0c-5.904,0 -10.333,4.717 -10.333,10.608c0,5.596 4.429,10.017 10.333,10.017l22.429,0l0,100.975l-23.316,0c-5.905,0 -10.33,4.712 -10.33,10.308Z" style="fill:#fff;fill-rule:nonzero;"/><path d="M5993.96,907.971c-10.337,8.558 -23.625,15.346 -34.55,15.346c-20.379,0 -28.645,-10.625 -28.645,-33.054l0,-80.871c0,-7.084 -5.305,-12.396 -12.38,-12.396c-7.07,0 -12.375,5.312 -12.375,12.396l0,80.871c0,40.125 19.155,53.675 46.905,53.675c15.65,0 31.3,-7.071 44.287,-18.855l2.063,9.117c1.77,4.721 4.716,8.263 11.495,8.263c7.071,0 10.909,-5.313 10.909,-11.509c0,-4.721 -2.954,-12.687 -2.954,-25.375l-0.001,-96.187c0.001,-7.084 -5.304,-12.396 -12.374,-12.396c-6.78,0 -12.38,5.312 -12.38,12.396l0,98.579Z" style="fill:#fff;fill-rule:nonzero;"/><path d="M6067.46,930.067c0,7.083 5.596,12.396 12.375,12.396c7.075,0 12.38,-5.313 12.38,-12.396l-0.001,-98.575c10.63,-8.854 23.921,-15.642 34.846,-15.642c20.079,0 28.646,10.917 28.646,33.35l0,80.867c0,7.083 5.304,12.396 12.375,12.396c7.075,0 12.379,-5.313 12.379,-12.396l0,-80.867c0,-40.129 -19.745,-53.679 -48.379,-53.679c-13.292,0 -29.829,7.071 -42.816,18.854l-2.063,-9.117c-1.471,-4.721 -4.713,-8.262 -11.492,-8.262c-7.366,0 -10.908,5.312 -10.908,11.804c0,4.425 2.658,12.392 2.658,25.375l0,95.892Z" style="fill:#fff;fill-rule:nonzero;"/><path d="M6318.04,814.079c-13.284,-11.783 -28.638,-18.558 -43.109,-18.558c-37.487,0 -55.166,33.021 -55.166,74.65c0,43.696 20.629,73.766 62.254,73.766c14.471,0 25.691,-4.416 33.075,-7.658l0,11.204c0,23.638 -13.288,33.092 -35.733,33.092c-8.563,0 -16.534,-1.775 -23.03,-4.137c-4.433,-1.184 -9.45,-3.546 -13.875,-3.546c-7.075,0 -10.316,4.725 -10.316,10.037c0,3.829 1.771,6.775 5.896,9.134c9.729,5.595 26.562,8.837 41.324,8.837c37.205,0 60.488,-16.496 60.488,-56.371l0,-110.375c0,-12.954 2.95,-20.629 2.95,-25.646c0,-6.2 -3.833,-11.512 -11.496,-11.512c-5.896,0 -9.725,3.246 -10.904,8.267l-2.358,8.816Zm-2.946,101.563c-7.679,3.837 -16.833,7.675 -29.529,7.675c-28.054,0 -40.75,-18.888 -40.75,-52.829c0,-32.792 10.629,-54.638 35.137,-54.638c8.563,0 21.854,3.838 35.142,15.646l0,84.146Z" style="fill:#fff;fill-rule:nonzero;"/><path d="M6485.67,924.463c2.654,8.262 8.258,18 23.012,18c14.754,0 20.654,-9.738 23.309,-18l35.699,-107.992c0.592,-2.067 1.476,-5.313 1.476,-7.079c0,-7.084 -5.309,-12.396 -12.096,-12.396c-5.605,0 -10.621,3.541 -11.8,8.558l-35.996,113.333l-0.888,0l-35.995,-113.333c-1.475,-5.017 -6.492,-8.558 -11.8,-8.558c-7.084,0 -12.392,5.312 -12.392,12.396c0,1.77 0.883,5.016 1.475,7.083l35.996,107.987Z" style="fill:#fff;fill-rule:nonzero;"/><path d="M6593.67,869.879c0,42.217 22.4,74.058 63.141,74.058c41.042,0 63.142,-31.841 63.142,-74.058c0,-42.812 -22.692,-74.358 -63.142,-74.358c-40.154,0 -63.141,31.546 -63.141,74.358Zm63.141,53.438c-24.212,0 -38.383,-22.146 -38.383,-53.438c0,-32.183 14.171,-54.029 38.383,-54.029c24.217,0 38.388,21.846 38.388,54.029c0,31.292 -14.171,53.438 -38.388,53.438Z" style="fill:#fff;fill-rule:nonzero;"/><path d="M6760.46,930.067c0,7.083 5.6,12.396 12.38,12.396c7.07,0 12.374,-5.313 12.374,-12.396l0.001,-98.575c10.633,-8.854 23.92,-15.642 34.85,-15.642c20.079,0 28.641,10.917 28.641,33.35l0,80.867c0,7.083 5.309,12.396 12.379,12.396c7.071,0 12.38,-5.313 12.38,-12.396l-0.001,-80.867c0.001,-40.129 -19.745,-53.679 -48.383,-53.679c-13.287,0 -29.825,7.071 -42.812,18.854l-2.063,-9.117c-1.475,-4.721 -4.717,-8.262 -11.492,-8.262c-7.37,0 -10.908,5.312 -10.908,11.804c0,4.425 2.654,12.392 2.654,25.375l0,95.892Z" style="fill:#fff;fill-rule:nonzero;"/><path d="M7009.04,915.346l-1.471,-16.825c-0.888,-7.679 -6.484,-11.221 -12.084,-11.221c-5.6,0 -11.787,3.542 -10.904,14.171l1.475,15.646c0.884,9.733 5.6,15.329 15.913,19.162c10.904,4.417 29.466,7.658 43.025,7.658c36.542,0 61.887,-21.212 61.887,-54.275c0,-35.425 -29.47,-49.595 -55.108,-61.108c-24.271,-10.921 -39.929,-17.712 -39.929,-37.492c0,-18.595 13.592,-27.75 33.975,-27.75c9.75,0 21.271,2.067 30.725,6.2l1.775,15.35c0.887,7.68 5.917,11.517 11.833,11.517c6.508,0 12.125,-4.133 10.946,-14.171l-1.479,-14.762c-0.888,-9.142 -5.917,-14.738 -15.383,-18.863c-10.351,-4.421 -25.713,-7.071 -38.417,-7.071c-35.742,0 -59.025,20.33 -59.025,51.321c0,33.067 26.529,44.875 51.937,56.092c23.021,10.333 43.1,19.779 43.1,42.508c0,18.304 -13.287,30.704 -36.912,30.704c-9.946,0 -25.563,-2.066 -35.879,-6.791Z" style="fill:#fff;fill-rule:nonzero;"/><path d="M7160.04,819.096l0,77.058c0,26.867 14.437,47.784 42.758,47.784c6.492,0 18.592,-1.471 27.15,-6.775c4.133,-2.946 5.904,-6.188 5.904,-10.017c0,-6.192 -4.429,-10.029 -9.741,-10.029c-5.605,0 -9.442,5.904 -20.363,5.904c-11.804,0 -20.954,-6.2 -20.954,-26.571l0,-77.354l35.712,0c5.9,0 10.329,-4.421 10.329,-10.017c0.001,-5.891 -4.429,-10.608 -10.329,-10.608l-35.712,0l0,-32.167c0,-7.083 -5.304,-12.396 -12.379,-12.396c-7.071,0 -12.375,5.313 -12.375,12.396l0,32.167l-20.663,0c-5.9,0 -10.329,4.717 -10.329,10.608c0,5.596 4.429,10.017 10.329,10.017l20.663,0Z" style="fill:#fff;fill-rule:nonzero;"/><path d="M7254.5,930.379c0,5.896 4.429,10.609 10.329,10.609l81.425,0c5.9,0 10.329,-4.713 10.329,-10.313c0,-5.892 -4.429,-10.604 -10.329,-10.604l-33.354,0l0,-85.329c9.15,-6.788 30.696,-16.534 44.863,-17.417l3.541,25.979c0.888,5.021 4.429,9.45 10.921,9.45c5.904,0 10.921,-4.725 10.329,-11.812l-2.95,-35.404c-0.592,-6.188 -5.904,-10.017 -12.692,-10.017c-20.954,0 -41.908,8.546 -58.725,19.446l-2.062,-9.129c-0.887,-4.125 -4.129,-7.367 -8.546,-7.367l-31.862,0c-5.904,0 -10.329,4.717 -10.329,10.608c-0.001,5.596 4.425,10.017 10.329,10.017l22.429,0l0,100.975l-23.317,0c-5.9,0 -10.329,4.712 -10.329,10.308Z" style="fill:#fff;fill-rule:nonzero;"/><path d="M7502.13,907.971c-10.333,8.558 -23.625,15.346 -34.55,15.346c-20.375,0 -28.646,-10.625 -28.646,-33.054l0,-80.871c0,-7.084 -5.304,-12.396 -12.375,-12.396c-7.075,0 -12.379,5.312 -12.379,12.396l0,80.871c0,40.125 19.154,53.675 46.904,53.675c15.65,0 31.304,-7.071 44.288,-18.855l2.066,9.117c1.767,4.721 4.713,8.263 11.492,8.263c7.071,0 10.908,-5.313 10.908,-11.509c0,-4.721 -2.95,-12.687 -2.95,-25.375l0,-96.187c0,-7.084 -5.308,-12.396 -12.379,-12.396c-6.779,0 -12.379,5.312 -12.379,12.396l0,98.579Z" style="fill:#fff;fill-rule:nonzero;"/><path d="M7575.63,930.067c0,7.083 5.304,12.396 12.375,12.396c6.779,0 12.379,-5.313 12.379,-12.396l0,-53.717l22.725,0l41.321,61.096c1.771,2.95 5.904,5.017 9.738,5.017c7.083,0 12.691,-4.721 12.691,-11.217c0,-2.654 -1.179,-5.313 -2.358,-7.375l-40.142,-58.125l35.713,-50.154c1.179,-2.067 2.066,-4.429 2.066,-7.084c0,-6.495 -5.608,-11.512 -12.395,-11.512c-4.721,0 -7.971,1.771 -10.33,5.312l-36.304,54.013l-22.725,0l0,-113.925c0,-6.788 -5.6,-12.396 -12.379,-12.396c-7.071,0 -12.375,5.312 -12.375,12.396l0,187.671Z" style="fill:#fff;fill-rule:nonzero;"/><path d="M7735,819.096l0,77.058c0,26.867 14.442,47.784 42.758,47.784c6.492,0 18.592,-1.471 27.155,-6.775c4.129,-2.946 5.9,-6.188 5.9,-10.017c0,-6.192 -4.425,-10.029 -9.738,-10.029c-5.608,0 -9.446,5.904 -20.367,5.904c-11.804,0 -20.954,-6.2 -20.954,-26.571l0,-77.354l35.713,0c5.904,0 10.329,-4.421 10.329,-10.017c0,-5.891 -4.425,-10.608 -10.329,-10.608l-35.713,0l0,-32.167c0,-7.083 -5.304,-12.396 -12.379,-12.396c-7.071,0 -12.375,5.313 -12.375,12.396l0,32.167l-20.658,0c-5.904,0 -10.334,4.717 -10.334,10.608c0,5.596 4.43,10.017 10.334,10.017l20.658,0Z" style="fill:#fff;fill-rule:nonzero;"/><path d="M7928.58,907.971c-10.337,8.558 -23.625,15.346 -34.554,15.346c-20.375,0 -28.646,-10.625 -28.646,-33.054l0,-80.871c0,-7.084 -5.304,-12.396 -12.375,-12.396c-7.075,0 -12.379,5.312 -12.379,12.396l0,80.871c0,40.125 19.158,53.675 46.904,53.675c15.65,0 31.304,-7.071 44.292,-18.855l2.062,9.117c1.767,4.721 4.713,8.263 11.492,8.263c7.075,0 10.908,-5.313 10.908,-11.509c0,-4.721 -2.95,-12.687 -2.95,-25.375l0,-96.187c0,-7.084 -5.304,-12.396 -12.379,-12.396c-6.779,0 -12.375,5.312 -12.375,12.396l0,98.579Z" style="fill:#fff;fill-rule:nonzero;"/><path d="M7989.38,930.379c0,5.896 4.429,10.609 10.329,10.609l81.425,0c5.9,0 10.329,-4.713 10.329,-10.313c0,-5.892 -4.429,-10.604 -10.329,-10.604l-33.354,0l0,-85.329c9.15,-6.788 30.696,-16.534 44.863,-17.417l3.541,25.979c0.888,5.021 4.429,9.45 10.921,9.45c5.904,0 10.921,-4.725 10.329,-11.812l-2.95,-35.404c-0.592,-6.188 -5.904,-10.017 -12.691,-10.017c-20.955,0 -41.909,8.546 -58.726,19.446l-2.062,-9.129c-0.888,-4.125 -4.129,-7.367 -8.546,-7.367l-31.862,0c-5.904,0 -10.329,4.717 -10.329,10.608c-0.001,5.596 4.424,10.017 10.329,10.017l22.429,0l0,100.975l-23.317,0c-5.9,0 -10.329,4.712 -10.329,10.308Z" style="fill:#fff;fill-rule:nonzero;"/><path d="M8166.17,875.467l81.766,0c5.6,0 9.725,-2.65 9.725,-13.255c0,-42.524 -17.975,-66.691 -56.058,-66.691c-38.971,0 -60.192,27.712 -60.192,73.762c0,44.58 20.925,74.655 65.213,74.655c10.333,0 27.462,-2.355 38.367,-7.659c4.712,-2.65 9.133,-5.304 9.133,-10.604c0,-4.721 -3.533,-9.45 -10.017,-9.45c-4.716,0 -9.137,2.071 -14.45,3.546c-7.087,2.067 -14.766,3.842 -23.033,3.842c-28.938,0 -40.454,-20.971 -40.454,-48.146Zm0,-17.079c1.475,-23.042 12.4,-42.538 35.433,-42.538c24.508,0 32.483,17.721 33.075,42.538l-68.508,0Z" style="fill:#fff;fill-rule:nonzero;"/><path d="M8297.21,930.067c0,7.083 5.6,12.396 12.379,12.396c7.071,0 12.38,-5.313 12.38,-12.396l0,-98.575c10.629,-8.854 23.916,-15.642 34.845,-15.642c20.08,0 28.646,10.917 28.646,33.35l0,80.867c0,7.083 5.305,12.396 12.375,12.396c7.075,0 12.38,-5.313 12.38,-12.396l0,-80.867c0,-40.129 -19.746,-53.679 -48.38,-53.679c-13.291,0 -29.829,7.071 -42.816,18.854l-2.063,-9.117c-1.471,-4.721 -4.712,-8.262 -11.492,-8.262c-7.366,0 -10.908,5.312 -10.908,11.804c0,4.425 2.654,12.392 2.654,25.375l0,95.892Z" style="fill:#fff;fill-rule:nonzero;"/><path d="M8604.46,907.958c-12.108,10.925 -26.283,15.359 -36.325,15.359c-16.833,0 -26.575,-8.567 -26.575,-23.042c0,-14.767 10.63,-22.742 31.3,-22.742l31.6,0l0,30.425Zm0,-48.095l-32.483,0c-34.25,0 -54.583,15.312 -54.583,41.891c0,25.688 17.975,42.184 45.721,42.184c18.9,0 34.554,-8.838 44.587,-18.267l2.063,8.529c1.179,4.425 4.716,8.263 11.2,8.263c7.366,0 11.2,-5.017 11.2,-10.921c0,-5.313 -2.95,-10.921 -2.95,-27.742l0,-58.117c0,-25.404 -12.38,-50.162 -53.992,-50.162c-11.221,0 -28.35,2.358 -38.967,7.658c-5.6,2.946 -8.55,5.892 -8.55,10.313c0,5.016 3.538,10.037 10.317,10.037c3.829,0 8.554,-2.066 13.575,-3.546c7.087,-2.362 14.471,-4.133 21.558,-4.133c23.921,0 31.304,13.292 31.304,29.833l0,14.18Z" style="fill:#fff;fill-rule:nonzero;"/><path d="M8763.54,907.971c-10.338,8.558 -23.625,15.346 -34.55,15.346c-20.379,0 -28.646,-10.625 -28.646,-33.054l0,-80.871c0,-7.084 -5.304,-12.396 -12.379,-12.396c-7.071,0 -12.375,5.312 -12.375,12.396l0,80.871c0,40.125 19.154,53.675 46.904,53.675c15.65,0 31.3,-7.071 44.287,-18.855l2.063,9.117c1.771,4.721 4.717,8.263 11.496,8.263c7.071,0 10.908,-5.313 10.908,-11.509c0,-4.721 -2.954,-12.687 -2.954,-25.375l0,-96.187c0,-7.084 -5.304,-12.396 -12.375,-12.396c-6.779,0 -12.379,5.312 -12.379,12.396l0,98.579Z" style="fill:#fff;fill-rule:nonzero;"/><path d="M8855.04,798.471l-21.25,0c-5.9,0 -10.329,4.421 -10.329,10.312c0,5.892 4.429,10.313 10.329,10.313l21.25,0l0,100.975l-18.592,0c-5.904,0 -10.329,4.712 -10.329,10.604c0,5.6 4.425,10.313 10.329,10.313l79.058,0c5.905,0 10.334,-4.713 10.334,-10.313c0,-5.892 -4.43,-10.604 -10.334,-10.604l-35.708,0l0,-100.975l41.613,0c5.904,0 10.329,-4.421 10.329,-10.313c0,-5.891 -4.425,-10.312 -10.329,-10.312l-41.613,0l0,-15.358c0,-24.517 9.442,-32.492 23.608,-32.492c7.38,0 12.692,1.775 18.3,5.025c2.95,1.179 5.609,2.067 8.263,2.067c6.2,0 10.037,-4.726 10.037,-9.742c0,-3.829 -2.066,-7.071 -5.608,-9.429c-7.675,-5.3 -21.25,-8.838 -32.762,-8.838c-32.742,0 -46.596,23.575 -46.596,54l0,14.767Z" style="fill:#fff;fill-rule:nonzero;"/><path d="M9035.96,930.067c0,7.083 5.305,12.396 12.38,12.396c7.07,0 12.374,-5.313 12.374,-12.396l0.001,-76.442l59.325,0c6.195,0 11.216,-4.712 11.216,-10.9c0,-6.188 -5.021,-10.9 -11.217,-10.9l-59.325,0l0.001,-65.267l75.262,0c5.904,0 10.921,-5.008 10.921,-11.196c0,-5.891 -5.017,-10.9 -10.921,-10.9l-87.637,0c-7.075,0 -12.38,5.305 -12.38,12.375l0,173.23Z" style="fill:#fff;fill-rule:nonzero;"/><path d="M9152.83,930.675c0,5.6 4.43,10.313 10.038,10.313l76.404,0c5.9,0 10.329,-4.713 10.329,-10.313c0,-5.892 -4.429,-10.604 -10.329,-10.604l-25.679,0l0,-178.284c0,-5.599 -4.717,-10.608 -10.609,-10.608l-39.233,0c-5.904,0 -10.329,4.717 -10.329,10.608c0,5.596 4.425,10.313 10.329,10.313l25.088,0l0,167.971l-25.971,0c-5.609,0 -10.038,4.712 -10.038,10.604Z" style="fill:#fff;fill-rule:nonzero;"/><path d="M9354.71,907.958c-12.108,10.925 -26.283,15.359 -36.32,15.359c-16.834,0 -26.58,-8.567 -26.58,-23.042c0,-14.767 10.629,-22.742 31.305,-22.742l31.595,0l0,30.425Zm0,-48.095l-32.483,0c-34.25,0 -54.583,15.312 -54.583,41.891c0,25.688 17.979,42.184 45.725,42.184c18.9,0 34.55,-8.838 44.583,-18.267l2.063,8.529c1.179,4.425 4.716,8.263 11.2,8.263c7.366,0 11.204,-5.017 11.204,-10.921c0,-5.313 -2.954,-10.921 -2.954,-27.742l-0.001,-58.117c0.001,-25.404 -12.374,-50.162 -53.987,-50.162c-11.225,0 -28.35,2.358 -38.971,7.658c-5.6,2.946 -8.546,5.892 -8.546,10.313c0,5.016 3.538,10.037 10.313,10.037c3.833,0 8.558,-2.066 13.579,-3.546c7.087,-2.362 14.467,-4.133 21.554,-4.133c23.921,0 31.304,13.292 31.304,29.833l0,14.18Z" style="fill:#fff;fill-rule:nonzero;"/><path d="M9507.79,836.517c0.887,7.083 5.325,11.216 11.537,11.216c6.804,0 11.829,-5.608 10.65,-14.466l-1.183,-12.696c-0.888,-7.375 -2.663,-11.5 -9.171,-15.621c-9.762,-6.188 -24.512,-9.429 -36.008,-9.429c-41.263,0 -64.25,27.412 -64.25,74.062c0,43.992 21.808,74.355 64.25,74.355c9.137,0 26.541,-2.355 37.783,-7.659c5.029,-2.358 9.167,-5.304 9.167,-10.9c0,-4.721 -3.25,-9.737 -9.759,-9.737c-3.845,0 -8.875,2.066 -13.904,3.541c-6.783,2.363 -15.329,4.134 -23.287,4.134c-26.821,0 -39.2,-22.146 -39.2,-53.734c0,-32.775 12.083,-53.733 39.2,-53.733c7.371,0 15.621,2.062 22.108,5.904l2.067,14.763Z" style="fill:#fff;fill-rule:nonzero;"/><path d="M9569.29,930.067c0,7.083 5.304,12.396 12.379,12.396c6.775,0 12.375,-5.313 12.375,-12.396l0,-98.575c10.337,-8.854 23.625,-15.642 34.554,-15.642c20.375,0 28.642,10.917 28.642,33.35l0,80.867c0,7.083 5.308,12.396 12.379,12.396c7.071,0 12.379,-5.313 12.379,-12.396l0,-80.867c0,-40.129 -19.158,-53.679 -46.904,-53.679c-15.063,0 -28.942,6.483 -41.05,15.908l0,-69.329c0,-7.083 -5.6,-12.396 -12.375,-12.396c-7.075,0 -12.379,5.313 -12.379,12.396l0,187.967Z" style="fill:#fff;fill-rule:nonzero;"/><path d="M9816.29,803.179c-7.384,-3.237 -18.604,-7.658 -31.009,-7.658c-43.691,0 -64.325,30.071 -64.325,74.062c0,47.238 21.809,74.355 55.763,74.355c13.879,0 29.233,-6.775 42.516,-18.559l2.359,8.821c1.179,4.721 4.712,8.263 11.196,8.263c7.37,0 10.908,-5.313 10.908,-11.509c0,-4.725 -2.654,-12.691 -2.654,-25.383l0,-163.471c0,-7.083 -5.304,-12.396 -12.379,-12.396c-7.071,0 -12.375,5.313 -12.375,12.396l0,61.079Zm0,104.784c-13.292,11.812 -26.875,15.354 -35.142,15.354c-24.804,0 -35.142,-21.85 -35.142,-53.734c0,-31.591 10.93,-53.733 39.571,-53.733c11.813,0 23.625,4.129 30.713,7.675l0,84.438Z" style="fill:#fff;fill-rule:nonzero;"/><path d="M9965.96,907.958c-12.108,10.925 -26.283,15.359 -36.325,15.359c-16.829,0 -26.575,-8.567 -26.575,-23.042c0,-14.767 10.63,-22.742 31.3,-22.742l31.6,0l0,30.425Zm0,-48.095l-32.483,0c-34.25,0 -54.583,15.312 -54.583,41.891c0,25.688 17.979,42.184 45.725,42.184c18.9,0 34.55,-8.838 44.583,-18.267l2.063,8.529c1.179,4.425 4.716,8.263 11.2,8.263c7.366,0 11.204,-5.017 11.204,-10.921c0,-5.313 -2.954,-10.921 -2.954,-27.742l0,-58.117c0,-25.404 -12.375,-50.162 -53.992,-50.162c-11.221,0 -28.35,2.358 -38.967,7.658c-5.6,2.946 -8.546,5.892 -8.546,10.313c0,5.016 3.534,10.037 10.313,10.037c3.833,0 8.558,-2.066 13.575,-3.546c7.087,-2.362 14.471,-4.133 21.558,-4.133c23.921,0 31.304,13.292 31.304,29.833l0,14.18Zm-3.262,-85.925c8.842,0 15.917,-6.78 15.917,-15.625c0,-9.138 -7.371,-16.213 -16.213,-16.213c-8.55,0 -15.329,7.075 -15.329,16.213c0,8.845 7.075,15.625 15.625,15.625Zm-51.65,0c8.546,0 15.621,-6.78 15.621,-15.625c0,-9.138 -7.367,-16.213 -15.917,-16.213c-8.55,0 -15.625,7.075 -15.625,16.213c0,8.845 7.371,15.625 15.921,15.625Z" style="fill:#fff;fill-rule:nonzero;"/><path d="M10119,836.517c0.888,7.083 5.329,11.216 11.542,11.216c6.804,0 11.829,-5.608 10.65,-14.466l-1.184,-12.696c-0.887,-7.375 -2.662,-11.5 -9.171,-15.621c-9.766,-6.188 -24.512,-9.429 -36.008,-9.429c-41.262,0 -64.25,27.412 -64.25,74.062c0,43.992 21.809,74.355 64.25,74.355c9.138,0 26.542,-2.355 37.784,-7.659c5.029,-2.358 9.166,-5.304 9.166,-10.9c0,-4.721 -3.25,-9.737 -9.758,-9.737c-3.846,0 -8.875,2.066 -13.908,3.541c-6.78,2.363 -15.325,4.134 -23.284,4.134c-26.821,0 -39.2,-22.146 -39.2,-53.734c0,-32.775 12.084,-53.733 39.2,-53.733c7.367,0 15.621,2.062 22.104,5.904l2.067,14.763Z" style="fill:#fff;fill-rule:nonzero;"/><path d="M10180.5,930.067c0,7.083 5.304,12.396 12.375,12.396c6.779,0 12.379,-5.313 12.379,-12.396l0,-98.575c10.338,-8.854 23.625,-15.642 34.55,-15.642c20.379,0 28.646,10.917 28.646,33.35l0,80.867c0,7.083 5.304,12.396 12.379,12.396c7.071,0 12.375,-5.313 12.375,-12.396l0,-80.867c0,-40.129 -19.154,-53.679 -46.9,-53.679c-15.062,0 -28.942,6.483 -41.05,15.908l0,-69.329c0,-7.083 -5.6,-12.396 -12.379,-12.396c-7.071,0 -12.375,5.313 -12.375,12.396l0,187.967Z" style="fill:#fff;fill-rule:nonzero;"/><path d="M10357.3,875.467l81.771,0c5.6,0 9.725,-2.65 9.725,-13.255c0,-42.524 -17.975,-66.691 -56.059,-66.691c-38.975,0 -60.191,27.712 -60.191,73.762c0,44.58 20.925,74.655 65.212,74.655c10.334,0 27.463,-2.355 38.367,-7.659c4.712,-2.65 9.133,-5.304 9.133,-10.604c0,-4.721 -3.537,-9.45 -10.021,-9.45c-4.712,0 -9.133,2.071 -14.445,3.546c-7.088,2.067 -14.767,3.842 -23.034,3.842c-28.941,0 -40.458,-20.971 -40.458,-48.146Zm0,-17.079c1.479,-23.042 12.404,-42.538 35.438,-42.538c24.508,0 32.483,17.721 33.07,42.538l-68.508,0Z" style="fill:#fff;fill-rule:nonzero;"/><path d="M10475.7,930.379c0,5.896 4.429,10.609 10.329,10.609l81.425,0c5.9,0 10.329,-4.713 10.329,-10.313c0,-5.892 -4.429,-10.604 -10.329,-10.604l-33.354,0l0,-85.329c9.15,-6.788 30.695,-16.534 44.862,-17.417l3.542,25.979c0.887,5.021 4.429,9.45 10.921,9.45c5.904,0 10.921,-4.725 10.329,-11.812l-2.95,-35.404c-0.592,-6.188 -5.904,-10.017 -12.692,-10.017c-20.954,0 -41.908,8.546 -58.725,19.446l-2.062,-9.129c-0.888,-4.125 -4.129,-7.367 -8.546,-7.367l-31.863,0c-5.904,0 -10.329,4.717 -10.329,10.608c0,5.596 4.425,10.017 10.329,10.017l22.43,0l-0.001,100.975l-23.316,0c-5.9,0 -10.329,4.712 -10.329,10.308Z" style="fill:#fff;fill-rule:nonzero;"/><path d="M10636.8,930.067c0,7.083 5.6,12.396 12.379,12.396c7.071,0 12.375,-5.313 12.375,-12.396l0,-98.575c10.633,-8.854 23.921,-15.642 34.85,-15.642c20.079,0 28.641,10.917 28.641,33.35l0,80.867c0,7.083 5.309,12.396 12.38,12.396c7.07,0 12.379,-5.313 12.379,-12.396l0,-80.867c0,-40.129 -19.746,-53.679 -48.384,-53.679c-13.287,0 -29.825,7.071 -42.812,18.854l-2.063,-9.117c-1.475,-4.721 -4.716,-8.262 -11.491,-8.262c-7.371,0 -10.909,5.312 -10.909,11.804c0,4.425 2.655,12.392 2.655,25.375l0,95.892Z" style="fill:#fff;fill-rule:nonzero;"/></g></svg>