<?xml version="1.0" encoding="UTF-8" standalone="no"?><!DOCTYPE svg PUBLIC "-//W3C//DTD SVG 1.1//EN" "http://www.w3.org/Graphics/SVG/1.1/DTD/svg11.dtd"><svg width="100%" height="100%" viewBox="0 0 2625 292" version="1.1" xmlns="http://www.w3.org/2000/svg" xmlns:xlink="http://www.w3.org/1999/xlink" xml:space="preserve" xmlns:serif="http://www.serif.com/" style="fill-rule:evenodd;clip-rule:evenodd;stroke-linejoin:round;stroke-miterlimit:2;"><g><path d="M220.096,137.404c-4.208,0 -7.563,-1.387 -10.546,-4.371c-2.975,-2.987 -4.371,-6.333 -4.371,-10.541l0,-91.996c0,-4.459 1.363,-7.896 4.279,-10.813c2.921,-2.916 6.363,-4.279 10.821,-4.279l50.225,0c3.459,0 6.221,1.15 8.709,3.638c2.479,2.479 3.637,5.183 3.637,8.512c0,3.333 -1.217,6.104 -3.825,8.7c-2.537,2.292 -5.371,3.463 -8.704,3.463l-28.883,0c-3.546,0 -6.425,2.87 -6.425,6.425l0,13.062c0,3.554 2.879,6.425 6.425,6.425l24.466,0c3.292,0 5.921,1.129 8.263,3.558c2.404,2.492 3.529,5.217 3.529,8.596c0,3.413 -1.075,6.042 -3.375,8.259c-2.371,2.279 -5.1,3.345 -8.596,3.345l-24.287,0c-3.546,0 -6.425,2.88 -6.425,6.425l0,26.68c0,4.2 -1.392,7.554 -4.375,10.541c-2.98,2.984 -6.334,4.371 -10.542,4.371" style="fill:#1c4685;fill-rule:nonzero;"/><path d="M312.638,136.671c-4.188,0 -7.505,-1.383 -10.417,-4.346c-2.904,-2.942 -4.317,-6.454 -4.317,-10.754l0,-92.721c0,-4.087 1.388,-7.383 4.375,-10.358c2.983,-2.988 6.329,-4.375 10.538,-4.375c4.087,0 7.383,1.387 10.358,4.366c2.987,2.984 4.375,6.338 4.375,10.546l0,92.909c0,4.17 -1.392,7.47 -4.396,10.387c-3.05,2.963 -6.392,4.346 -10.517,4.346" style="fill:#1c4685;fill-rule:nonzero;"/><path d="M436.454,136.671c-5.158,0 -9.683,-2.938 -13.833,-8.983l-19.108,-28.296c-1.196,-1.767 -3.192,-2.829 -5.325,-2.829c-2.134,0 -4.134,1.062 -5.33,2.829l-19.133,28.333c-4.125,6.004 -8.654,8.946 -13.808,8.946c-2.73,0 -5.204,-0.796 -7.55,-2.429c-2.588,-1.8 -4.463,-3.746 -5.571,-5.775c-1.084,-2.013 -1.613,-4.25 -1.613,-6.871c0,-3 1.025,-5.829 3.13,-8.629l30.275,-38.671c1.904,-2.425 1.812,-5.85 -0.205,-8.175l-24.1,-27.742c-2.537,-2.879 -3.758,-6.116 -3.758,-9.933c0,-4.504 1.675,-7.925 5.267,-10.75c2.983,-2.438 5.866,-3.579 8.912,-3.579c5.046,0 9.763,2.941 14.404,9l13.988,18.112c1.216,1.584 3.1,2.5 5.091,2.5c1.992,0 3.867,-0.916 5.08,-2.5l13.987,-18.1c4.658,-6.071 9.375,-9.012 14.421,-9.012c2.917,0 5.737,1.141 8.629,3.508c1.921,1.471 3.225,3.063 4.129,5.004c0.959,2.038 1.421,4.004 1.421,6.009c0,1.579 -0.312,3.27 -0.929,5.037c-0.579,1.658 -1.525,3.225 -2.796,4.658l-24.308,27.771c-2.038,2.325 -2.125,5.763 -0.225,8.192l30.358,38.767c2.025,2.704 3.054,5.654 3.054,8.908c0,4.992 -2.112,8.812 -6.662,12.012c-2.584,1.8 -5.167,2.688 -7.892,2.688" style="fill:#1c4685;fill-rule:nonzero;"/><path d="M504.892,40.267c-3.554,0 -6.425,2.87 -6.425,6.425l0,19.866c0,3.555 2.871,6.425 6.425,6.425l16.929,0c4.504,0 8.558,-1.67 11.712,-4.825c3.28,-3.27 5.013,-7.325 5.013,-11.712c0,-4.35 -1.779,-8.321 -5.154,-11.496c-3.25,-3.058 -7.255,-4.683 -11.571,-4.683l-16.929,0Zm-21.159,96.029c-4.158,0 -7.479,-1.438 -10.446,-4.534c-3.008,-3.137 -4.466,-6.704 -4.466,-10.9l0,-88.741c0,-5.367 1.35,-9.438 4.112,-12.471c2.646,-2.9 6.025,-4.25 10.621,-4.25l39.554,0c13.355,0 23.875,3.875 32.154,11.85c8.209,7.896 12.196,17.475 12.196,29.279c0,10.909 -3.354,19.704 -10.254,26.888c-7.033,7.321 -16.325,11.579 -28.417,13.008l-7.774,0.517l-16.121,-0.013c-3.555,0 -6.425,2.879 -6.425,6.425l0,18.05c0,4.471 -1.363,7.871 -4.288,10.679c-2.95,2.834 -6.358,4.213 -10.446,4.213" style="fill:#fff;fill-rule:nonzero;"/><path d="M622.271,39.346c-3.554,0 -6.425,2.871 -6.425,6.425l0,15.825c0,3.554 2.871,6.425 6.425,6.425l17.662,0c4.171,0 7.8,-1.608 10.505,-4.638c2.674,-3.016 3.85,-6.837 3.433,-11.071c0.029,-3.15 -1.321,-6.504 -3.883,-9.062c-2.55,-2.554 -5.775,-3.904 -9.321,-3.904l-18.396,0Zm46.6,97.696c-5.138,0 -9.713,-3.009 -13.975,-9.192l-27.3,-40.421c-1.213,-1.796 -3.229,-2.825 -5.325,-2.825c-0.629,0 -1.258,0.092 -1.883,0.284c-2.7,0.829 -4.542,3.316 -4.542,6.141l0,31.308c0,4.263 -1.346,7.592 -4.221,10.467c-2.879,2.892 -6.254,4.238 -10.608,4.238c-4.113,0 -7.421,-1.405 -10.421,-4.396c-3.004,-2.988 -4.396,-6.413 -4.396,-10.763l0,-90.587c0,-5.334 1.271,-9.234 3.892,-11.946c2.57,-2.658 6.225,-3.95 11.2,-3.95l40.3,0c11.333,0 20.571,2.479 27.458,7.367c6.775,4.808 11.092,11.491 13.2,20.433c0.858,3.767 1.296,7.246 1.296,10.3c0,4.971 -0.904,9.546 -2.679,13.617c-1.78,4.066 -4.279,7.475 -7.646,10.437l-0.738,0.729l-6.533,5.121c-2.758,2.163 -3.271,6.142 -1.15,8.938l15.637,20.604c2.23,2.858 3.288,5.9 3.288,9.362c0,5.029 -1.996,8.809 -6.3,11.884c-2.692,1.916 -5.496,2.85 -8.554,2.85" style="fill:#fff;fill-rule:nonzero;"/><path d="M767.246,37.688c-9.775,-0.001 -18.133,3.624 -24.833,10.775c-6.592,7.029 -9.93,16.033 -9.93,26.75c0,10.72 3.338,19.716 9.929,26.741c6.692,7.146 14.984,10.775 24.646,10.775c2.267,0 4.554,-0.225 6.784,-0.683c8.262,-1.65 15.15,-5.942 20.458,-12.742c5.229,-6.716 7.883,-14.762 7.883,-23.912c0,-2.18 -0.216,-4.529 -0.641,-6.992c-1.45,-8.975 -5.396,-16.429 -11.709,-22.083c-6.408,-5.73 -14.012,-8.63 -22.587,-8.63m0,99.167c-10.679,0 -20.767,-2.416 -29.984,-7.187c-9.187,-4.763 -16.875,-11.563 -22.879,-20.217c-7.52,-10.787 -11.179,-21.979 -11.179,-34.238c0,-12.266 3.659,-23.466 11.167,-34.229c5.879,-8.429 13.591,-15.175 22.921,-20.058c9.32,-4.883 19.404,-7.362 29.954,-7.362c10.679,0 20.767,2.416 29.971,7.183c9.196,4.762 16.891,11.567 22.879,20.221c7.533,10.691 11.187,21.875 11.187,34.246c0,12.366 -3.654,23.554 -11.158,34.195c-5.921,8.717 -13.579,15.496 -22.8,20.25c-9.275,4.775 -19.396,7.196 -30.079,7.196" style="fill:#fff;fill-rule:nonzero;"/><path d="M868.063,137.404c-4.209,0 -7.563,-1.387 -10.55,-4.375c-2.976,-2.983 -4.363,-6.329 -4.363,-10.537l0,-91.996c0,-4.459 1.363,-7.896 4.279,-10.813c2.917,-2.916 6.354,-4.279 10.817,-4.279l50.229,0c3.458,0 6.221,1.15 8.7,3.629c2.479,2.488 3.646,5.196 3.646,8.521c0,3.333 -1.221,6.096 -3.825,8.704c-2.5,2.25 -5.421,3.459 -8.704,3.459l-28.888,0c-3.55,0 -6.425,2.87 -6.425,6.425l0,13.062c0,3.554 2.875,6.425 6.425,6.425l24.471,0c3.292,0 5.913,1.129 8.258,3.558c2.409,2.492 3.534,5.225 3.534,8.596c0,3.413 -1.075,6.034 -3.38,8.259c-2.37,2.279 -5.095,3.345 -8.591,3.345l-24.292,0c-3.55,0 -6.425,2.88 -6.425,6.425l0,26.68c0,4.208 -1.396,7.554 -4.371,10.541c-2.987,2.984 -6.341,4.371 -10.546,4.371" style="fill:#fff;fill-rule:nonzero;"/><path d="M960.608,136.671c-4.187,0 -7.504,-1.383 -10.416,-4.346c-2.904,-2.942 -4.317,-6.454 -4.317,-10.754l0,-92.721c0,-4.087 1.388,-7.383 4.371,-10.367c2.987,-2.975 6.333,-4.366 10.542,-4.366c4.087,0 7.375,1.391 10.362,4.366c2.946,2.946 4.371,6.4 4.371,10.546l0,92.909c0,4.17 -1.396,7.47 -4.396,10.383c-3.013,2.921 -6.45,4.35 -10.517,4.35" style="fill:#fff;fill-rule:nonzero;"/><path d="M1014.88,135.013c-4.862,0 -8.621,-1.438 -11.492,-4.396c-2.925,-3 -4.346,-6.975 -4.346,-12.142l0,-89.475c0,-4.196 1.388,-7.546 4.375,-10.521c1.363,-1.362 2.959,-2.408 4.884,-3.192c1.929,-0.791 3.787,-1.17 5.654,-1.17c4.204,0 7.537,1.4 10.525,4.42c3,3.046 4.404,6.425 4.404,10.634l0,75.658c0,3.546 2.871,6.425 6.425,6.425l31.092,0c3.404,0 6.025,1.071 8.25,3.371c2.279,2.371 3.346,5.163 3.346,8.783c0,3.338 -1.067,5.95 -3.363,8.259c-2.287,2.279 -4.908,3.346 -8.233,3.346l-51.521,0Z" style="fill:#fff;fill-rule:nonzero;"/><path d="M132.821,89.279c-7.967,0 -14.458,-6.491 -14.458,-14.458l0,-24.867c0,-3.554 -2.871,-6.425 -6.425,-6.425l-30.051,0c-3.545,0 -6.425,2.871 -6.425,6.425l0,24.867c0,7.967 -6.487,14.458 -14.454,14.458c-7.966,0 -14.458,-6.491 -14.458,-14.458l0,-45.746c0,-7.971 6.492,-14.458 14.458,-14.458l71.813,0c7.966,0 14.458,6.487 14.458,14.458l0,45.746c0,7.967 -6.492,14.458 -14.458,14.458" style="fill:#fff;fill-rule:nonzero;"/><path d="M30.05,137.454c-7.967,0 -14.458,-6.487 -14.458,-14.458c0,-7.967 6.491,-14.454 14.458,-14.454l133.725,0c7.975,0 14.458,6.487 14.458,14.454c0,7.971 -6.483,14.458 -14.458,14.458l-133.725,0Z" style="fill:#fff;fill-rule:nonzero;"/><g><path d="M221.083,194.49c2.418,0 4.837,0.583 7.172,1.5c1.416,0.584 2.497,1.167 3.662,1.167c1.831,0 2.746,-1.334 2.746,-2.667c0,-1.414 -1.081,-2.413 -2.662,-3.161c-2.746,-1.414 -8.083,-2.329 -11.418,-2.329c-6.838,0 -13.744,3.743 -13.744,11.492c0,8.086 7.99,10.503 13.327,12.087c5.087,1.584 8.756,2.918 8.756,6.752c0,3.501 -2.835,6.002 -8.006,6.002c-2.585,0 -5.42,-0.583 -7.754,-1.417c-1.581,-0.5 -2.829,-1.084 -3.994,-1.084c-1.997,0 -2.913,1.418 -2.913,2.917c0,1.165 0.667,2.163 2.581,2.995c3.161,1.414 8.745,2.162 12.164,2.162c8.255,0 14.911,-4.242 14.911,-11.741c0,-7.753 -6.739,-10.087 -12.993,-12.004c-4.837,-1.501 -9.09,-2.918 -9.09,-7.003c0,-3.084 2.252,-5.668 7.255,-5.668Z" style="fill:#fff;fill-rule:nonzero;"/><path d="M250.505,195.656l0,21.758c0,7.586 4.077,13.492 12.073,13.492c1.833,0 5.25,-0.416 7.667,-1.913c1.166,-0.832 1.666,-1.747 1.666,-2.828c0,-1.749 -1.25,-2.832 -2.75,-2.832c-1.583,0 -2.666,1.667 -5.75,1.667c-3.333,0 -5.916,-1.751 -5.916,-7.503l0,-21.841l10.083,0c1.667,0 2.917,-1.248 2.917,-2.828c0,-1.664 -1.25,-2.995 -2.917,-2.995l-10.083,0l0,-9.083c0,-2 -1.498,-3.5 -3.495,-3.5c-1.997,0 -3.495,1.5 -3.495,3.5l0,9.083l-5.833,0c-1.667,0 -2.917,1.331 -2.917,2.995c0,1.58 1.25,2.828 2.917,2.828l5.833,0Z" style="fill:#fff;fill-rule:nonzero;"/><path d="M282.004,240.657c-1.75,0.25 -2.916,1.5 -2.916,3.083c0,1.5 0.916,3.25 3.499,3.25c0.75,0 2.083,-0.167 3.082,-0.417c5.582,-1.666 9.664,-5.249 12.746,-13.914l13.33,-38.243c0.166,-0.417 0.333,-1.083 0.333,-1.583c0,-1.916 -1.583,-3.416 -3.499,-3.416c-1.583,0 -2.916,1 -3.332,2.416l-10.414,31.994l-0.25,0l-10.497,-31.994c-0.416,-1.416 -1.832,-2.416 -3.332,-2.416c-1.999,0 -3.499,1.5 -3.499,3.416c0,0.5 0.084,1.166 0.25,1.583l13.663,38.41c-1.833,5.165 -4.582,6.665 -9.164,7.831Z" style="fill:#fff;fill-rule:nonzero;"/><path d="M314.755,227.161c0,1.581 1.25,2.912 2.834,2.912l21.572,0c1.667,0 2.917,-1.331 2.917,-2.912c0,-1.663 -1.25,-2.994 -2.917,-2.994l-7.25,0l0,-50.339c0,-1.581 -1.331,-2.995 -2.995,-2.995l-11.077,0c-1.667,0 -2.917,1.331 -2.917,2.995c0,1.581 1.25,2.912 2.917,2.912l7.083,0l0,47.427l-7.333,0c-1.584,0 -2.834,1.331 -2.834,2.994Z" style="fill:#fff;fill-rule:nonzero;"/><path d="M347.422,209.995c0,11.921 6.324,20.911 17.828,20.911c11.587,0 17.828,-8.99 17.828,-20.911c0,-12.088 -6.407,-20.995 -17.828,-20.995c-11.338,0 -17.828,8.907 -17.828,20.995Zm17.828,15.088c-6.837,0 -10.839,-6.252 -10.839,-15.088c0,-9.087 4.002,-15.255 10.839,-15.255c6.837,0 10.839,6.168 10.839,15.255c0,8.836 -4.002,15.088 -10.839,15.088Z" style="fill:#fff;fill-rule:nonzero;"/><path d="M400.502,225.408c0.75,2.332 2.333,5.082 6.498,5.082c4.165,0 5.832,-2.75 6.581,-5.082l10.081,-30.493c0.166,-0.583 0.416,-1.499 0.416,-1.999c0,-1.999 -1.499,-3.499 -3.416,-3.499c-1.582,0 -2.999,1 -3.332,2.416l-10.163,32l-0.25,0l-10.164,-32c-0.416,-1.416 -1.833,-2.416 -3.332,-2.416c-2,0 -3.499,1.5 -3.499,3.5c0,0.5 0.25,1.416 0.416,2l10.164,30.491Z" style="fill:#fff;fill-rule:nonzero;"/><path d="M438.078,211.573l23.088,0c1.581,0 2.745,-0.748 2.745,-3.742c0,-12.007 -5.075,-18.831 -15.828,-18.831c-11.003,0 -16.994,7.825 -16.994,20.827c0,12.588 5.907,21.079 18.412,21.079c2.918,0 7.754,-0.665 10.833,-2.162c1.331,-0.749 2.579,-1.498 2.579,-2.995c0,-1.333 -0.998,-2.667 -2.829,-2.667c-1.331,0 -2.579,0.584 -4.08,1.001c-2.001,0.583 -4.169,1.084 -6.503,1.084c-8.171,0 -11.423,-5.922 -11.423,-13.594Zm0,-4.823c0.417,-6.506 3.502,-12.01 10.005,-12.01c6.921,0 9.172,5.004 9.339,12.01l-19.344,0Zm6.92,-21.917c0.751,0 1.501,-0.25 2.502,-1.083l8.838,-7.833c0.834,-0.834 1.5,-1.584 1.5,-2.667c0,-1.583 -1.25,-3.25 -3.334,-3.25c-0.834,0 -1.668,0.417 -2.418,1.167l-8.588,8.75c-0.917,0.833 -1.084,1.666 -1.084,2.333c0,1.333 1.167,2.583 2.584,2.583Z" style="fill:#fff;fill-rule:nonzero;"/><path d="M491.672,227.078c0,1.664 1.25,2.995 2.917,2.995l22.989,0c1.667,0 2.917,-1.331 2.917,-2.912c0,-1.663 -1.25,-2.994 -2.917,-2.994l-9.417,0l0,-24.092c2.584,-1.918 8.667,-4.669 12.667,-4.919l1,7.336c0.25,1.417 1.25,2.668 3.083,2.668c1.667,0 3.084,-1.334 2.917,-3.335l-0.833,-9.996c-0.167,-1.747 -1.667,-2.829 -3.584,-2.829c-5.916,0 -11.833,2.413 -16.581,5.491l-0.582,-2.578c-0.25,-1.165 -1.165,-2.08 -2.413,-2.08l-8.996,0c-1.667,0 -2.917,1.331 -2.917,2.995c0,1.58 1.25,2.828 2.917,2.828l6.333,0l0,28.511l-6.583,0c-1.667,0 -2.917,1.331 -2.917,2.911Zm20.323,-47.948l-6.912,-7.301c-0.666,-0.664 -1.332,-0.996 -2.247,-0.996c-1.248,0 -2.414,0.913 -2.414,2.489c0,0.913 0.5,1.743 1,2.241l6.24,6.637c1.166,1.245 2.499,2.157 4.333,2.157c1.833,0 3.25,-0.912 4.333,-2.157l6.25,-6.637c0.5,-0.498 1,-1.328 1,-2.241c0,-1.576 -1.167,-2.489 -2.417,-2.489c-0.916,0 -1.583,0.332 -2.25,0.996l-6.916,7.301Z" style="fill:#fff;fill-rule:nonzero;"/><path d="M541.578,211.573l23.088,0c1.581,0 2.745,-0.748 2.745,-3.742c0,-12.007 -5.075,-18.831 -15.828,-18.831c-11.003,0 -16.994,7.825 -16.994,20.827c0,12.588 5.907,21.079 18.412,21.079c2.918,0 7.754,-0.665 10.833,-2.162c1.331,-0.749 2.579,-1.498 2.579,-2.995c0,-1.333 -0.998,-2.667 -2.829,-2.667c-1.331,0 -2.579,0.584 -4.08,1.001c-2.001,0.583 -4.169,1.084 -6.503,1.084c-8.171,0 -11.423,-5.922 -11.423,-13.594Zm0,-4.823c0.417,-6.506 3.502,-12.01 10.005,-12.01c6.921,0 9.172,5.004 9.339,12.01l-19.344,0Z" style="fill:#fff;fill-rule:nonzero;"/><path d="M590.75,194.49c2.418,0 4.836,0.583 7.171,1.5c1.416,0.584 2.498,1.167 3.663,1.167c1.831,0 2.746,-1.334 2.746,-2.667c0,-1.414 -1.082,-2.413 -2.663,-3.161c-2.746,-1.414 -8.082,-2.329 -11.418,-2.329c-6.837,0 -13.744,3.743 -13.744,11.492c0,8.086 7.99,10.503 13.327,12.087c5.087,1.584 8.757,2.918 8.757,6.752c0,3.501 -2.836,6.002 -8.006,6.002c-2.585,0 -5.42,-0.583 -7.754,-1.417c-1.581,-0.5 -2.829,-1.084 -3.994,-1.084c-1.997,0 -2.913,1.418 -2.913,2.917c0,1.165 0.666,2.163 2.58,2.995c3.162,1.414 8.745,2.162 12.164,2.162c8.255,0 14.912,-4.242 14.912,-11.741c0,-7.753 -6.74,-10.087 -12.994,-12.004c-4.836,-1.501 -9.089,-2.918 -9.089,-7.003c0,-3.084 2.251,-5.668 7.255,-5.668Zm0.333,-15.361l-6.921,-7.3c-0.667,-0.664 -1.333,-0.996 -2.248,-0.996c-1.248,0 -2.413,0.913 -2.413,2.489c0,0.912 0.499,1.742 0.998,2.24l6.248,6.636c1.167,1.244 2.502,2.157 4.336,2.157c1.835,0 3.253,-0.913 4.337,-2.157l6.247,-6.636c0.5,-0.498 0.999,-1.328 0.999,-2.24c0,-1.576 -1.165,-2.489 -2.413,-2.489c-0.916,0 -1.581,0.332 -2.248,0.996l-6.922,7.3Z" style="fill:#fff;fill-rule:nonzero;"/><path d="M621.328,211.573l23.088,0c1.581,0 2.745,-0.748 2.745,-3.742c0,-12.007 -5.075,-18.831 -15.828,-18.831c-11.003,0 -16.994,7.825 -16.994,20.827c0,12.588 5.907,21.079 18.412,21.079c2.918,0 7.754,-0.665 10.833,-2.162c1.331,-0.749 2.579,-1.498 2.579,-2.995c0,-1.333 -0.998,-2.667 -2.829,-2.667c-1.331,0 -2.579,0.584 -4.08,1.001c-2.001,0.583 -4.169,1.084 -6.503,1.084c-8.171,0 -11.423,-5.922 -11.423,-13.594Zm0,-4.823c0.417,-6.506 3.502,-12.01 10.005,-12.01c6.921,0 9.172,5.004 9.339,12.01l-19.344,0Z" style="fill:#fff;fill-rule:nonzero;"/><path d="M658.339,226.99c0,2 1.581,3.5 3.494,3.5c1.997,0 3.495,-1.5 3.495,-3.5l0,-27.834c3.002,-2.5 6.754,-4.416 9.839,-4.416c5.67,0 8.088,3.083 8.088,9.416l0,22.834c0,2 1.498,3.5 3.495,3.5c1.997,0 3.495,-1.5 3.495,-3.5l0,-22.834c0,-11.33 -5.575,-15.156 -13.66,-15.156c-3.753,0 -8.422,1.996 -12.089,5.324l-0.582,-2.574c-0.417,-1.333 -1.332,-2.333 -3.246,-2.333c-2.08,0 -3.079,1.5 -3.079,3.332c0,1.25 0.75,3.499 0.75,7.165l0,27.076Z" style="fill:#fff;fill-rule:nonzero;"/><path d="M699.922,227.161c0,1.581 1.25,2.912 2.917,2.912l21.572,0c1.667,0 2.917,-1.331 2.917,-2.912c0,-1.663 -1.25,-2.994 -2.917,-2.994l-7.25,0l0,-31.339c0,-1.664 -1.331,-2.995 -2.995,-2.995l-11.077,0c-1.667,0 -2.917,1.331 -2.917,2.995c0,1.58 1.25,2.828 2.917,2.828l7.083,0l0,28.511l-7.333,0c-1.667,0 -2.917,1.331 -2.917,2.994Zm8.833,-42.328c0.75,0 1.5,-0.25 2.499,-1.083l8.824,-7.833c0.833,-0.834 1.5,-1.584 1.5,-2.667c0,-1.583 -1.25,-3.25 -3.333,-3.25c-0.834,0 -1.666,0.417 -2.415,1.167l-8.575,8.75c-0.916,0.833 -1.083,1.666 -1.083,2.333c0,1.333 1.167,2.583 2.583,2.583Z" style="fill:#fff;fill-rule:nonzero;"/><path d="M759.414,191.75c-0.333,-1.333 -1.332,-2.333 -3.079,-2.333c-2.247,0 -3.246,1.5 -3.246,3.25c0,1.416 0.833,3.583 0.833,7.25l0,43.573c0,2 1.498,3.5 3.495,3.5c1.997,0 3.494,-1.5 3.494,-3.5l0,-14.747c2.252,0.915 5.17,2.08 8.922,2.08c12.087,0 17.912,-8.406 17.912,-20.906c0,-12.26 -5.159,-20.917 -15.661,-20.917c-4.086,0 -8.254,1.83 -12.088,5.24l-0.582,-2.49Zm1.497,7.408c3.752,-3.335 7.504,-4.418 10.006,-4.418c6.837,0 9.838,6.252 9.838,15.421c0,8.754 -3.168,14.922 -11.172,14.922c-3.335,0 -6.671,-1.083 -8.672,-2.167l0,-23.758Z" style="fill:#fff;fill-rule:nonzero;"/><path d="M795.339,227.078c0,1.664 1.25,2.995 2.916,2.995l22.99,0c1.666,0 2.916,-1.331 2.916,-2.912c0,-1.663 -1.25,-2.994 -2.916,-2.994l-9.417,0l0,-24.092c2.583,-1.918 8.667,-4.669 12.667,-4.919l1,7.336c0.25,1.417 1.25,2.668 3.083,2.668c1.667,0 3.083,-1.334 2.917,-3.335l-0.834,-9.996c-0.166,-1.747 -1.666,-2.829 -3.583,-2.829c-5.917,0 -11.833,2.413 -16.581,5.491l-0.583,-2.578c-0.249,-1.165 -1.165,-2.08 -2.413,-2.08l-8.996,0c-1.666,0 -2.916,1.331 -2.916,2.995c0,1.58 1.25,2.828 2.916,2.828l6.334,0l0,28.511l-6.584,0c-1.666,0 -2.916,1.331 -2.916,2.911Z" style="fill:#fff;fill-rule:nonzero;"/><path d="M838.172,209.995c0,11.921 6.324,20.911 17.828,20.911c11.587,0 17.828,-8.99 17.828,-20.911c0,-12.088 -6.407,-20.995 -17.828,-20.995c-11.338,0 -17.828,8.907 -17.828,20.995Zm17.828,15.088c-6.837,0 -10.839,-6.252 -10.839,-15.088c0,-9.087 4.002,-15.255 10.839,-15.255c6.837,0 10.839,6.168 10.839,15.255c0,8.836 -4.002,15.088 -10.839,15.088Z" style="fill:#fff;fill-rule:nonzero;"/><path d="M905.422,226.99c0,2 1.498,3.5 3.495,3.5c1.913,0 3.494,-1.5 3.494,-3.5l0,-15.167l6.417,0l11.667,17.25c0.5,0.833 1.666,1.417 2.75,1.417c2,0 3.583,-1.334 3.583,-3.167c0,-0.75 -0.333,-1.5 -0.667,-2.083l-11.333,-16.412l10.083,-14.161c0.334,-0.584 0.584,-1.25 0.584,-2c0,-1.834 -1.584,-3.25 -3.5,-3.25c-1.334,0 -2.25,0.5 -2.917,1.5l-10.25,15.25l-6.417,0l0,-32.167c0,-1.917 -1.581,-3.5 -3.494,-3.5c-1.997,0 -3.495,1.5 -3.495,3.5l0,52.99Z" style="fill:#fff;fill-rule:nonzero;"/><path d="M943.339,209.995c0,11.921 6.323,20.911 17.828,20.911c11.587,0 17.828,-8.99 17.828,-20.911c0,-12.088 -6.407,-20.995 -17.828,-20.995c-11.338,0 -17.828,8.907 -17.828,20.995Zm17.828,15.088c-6.837,0 -10.839,-6.252 -10.839,-15.088c0,-9.087 4.002,-15.255 10.839,-15.255c6.836,0 10.838,6.168 10.838,15.255c0,8.836 -4.002,15.088 -10.838,15.088Z" style="fill:#fff;fill-rule:nonzero;"/><path d="M993.255,195.656l0,21.758c0,7.586 4.077,13.492 12.073,13.492c1.833,0 5.25,-0.416 7.667,-1.913c1.166,-0.832 1.666,-1.747 1.666,-2.828c0,-1.749 -1.25,-2.832 -2.75,-2.832c-1.583,0 -2.666,1.667 -5.75,1.667c-3.333,0 -5.916,-1.751 -5.916,-7.503l0,-21.841l10.083,0c1.667,0 2.917,-1.248 2.917,-2.828c0,-1.664 -1.25,-2.995 -2.917,-2.995l-10.083,0l0,-9.083c0,-2 -1.498,-3.5 -3.495,-3.5c-1.997,0 -3.495,1.5 -3.495,3.5l0,9.083l-5.833,0c-1.667,0 -2.917,1.331 -2.917,2.995c0,1.58 1.25,2.828 2.917,2.828l5.833,0Z" style="fill:#fff;fill-rule:nonzero;"/><path d="M1030.75,225.408c0.75,2.332 2.333,5.082 6.498,5.082c4.165,0 5.832,-2.75 6.581,-5.082l10.081,-30.493c0.166,-0.583 0.416,-1.499 0.416,-1.999c0,-1.999 -1.499,-3.499 -3.416,-3.499c-1.582,0 -2.999,1 -3.332,2.416l-10.163,32l-0.25,0l-10.164,-32c-0.416,-1.416 -1.833,-2.416 -3.332,-2.416c-2,0 -3.499,1.5 -3.499,3.5c0,0.5 0.25,1.416 0.416,2l10.164,30.491Z" style="fill:#fff;fill-rule:nonzero;"/><path d="M1068.33,211.573l23.088,0c1.581,0 2.745,-0.748 2.745,-3.742c0,-12.007 -5.075,-18.831 -15.828,-18.831c-11.003,0 -16.994,7.825 -16.994,20.827c0,12.588 5.907,21.079 18.412,21.079c2.918,0 7.754,-0.665 10.833,-2.162c1.331,-0.749 2.579,-1.498 2.579,-2.995c0,-1.333 -0.998,-2.667 -2.829,-2.667c-1.331,0 -2.579,0.584 -4.08,1.001c-2.001,0.583 -4.169,1.084 -6.503,1.084c-8.171,0 -11.423,-5.922 -11.423,-13.594Zm0,-4.823c0.417,-6.506 3.502,-12.01 10.005,-12.01c6.921,0 9.172,5.004 9.339,12.01l-19.344,0Z" style="fill:#fff;fill-rule:nonzero;"/><path d="M1105.34,226.99c0,2 1.581,3.5 3.494,3.5c1.997,0 3.495,-1.5 3.495,-3.5l0,-27.834c3.002,-2.5 6.754,-4.416 9.839,-4.416c5.67,0 8.088,3.083 8.088,9.416l0,22.834c0,2 1.498,3.5 3.495,3.5c1.997,0 3.495,-1.5 3.495,-3.5l0,-22.834c0,-11.33 -5.575,-15.156 -13.66,-15.156c-3.753,0 -8.422,1.996 -12.089,5.324l-0.582,-2.574c-0.417,-1.333 -1.332,-2.333 -3.246,-2.333c-2.08,0 -3.079,1.5 -3.079,3.332c0,1.25 0.75,3.499 0.75,7.165l0,27.076Z" style="fill:#fff;fill-rule:nonzero;"/><path d="M1146.92,227.161c0,1.581 1.25,2.912 2.917,2.912l21.572,0c1.667,0 2.917,-1.331 2.917,-2.912c0,-1.663 -1.25,-2.994 -2.917,-2.994l-7.25,0l0,-31.339c0,-1.664 -1.331,-2.995 -2.995,-2.995l-11.077,0c-1.667,0 -2.917,1.331 -2.917,2.995c0,1.58 1.25,2.828 2.917,2.828l7.083,0l0,28.511l-7.333,0c-1.667,0 -2.917,1.331 -2.917,2.994Zm8.833,-42.328c0.75,0 1.5,-0.25 2.499,-1.083l8.824,-7.833c0.833,-0.834 1.5,-1.584 1.5,-2.667c0,-1.583 -1.25,-3.25 -3.333,-3.25c-0.834,0 -1.666,0.417 -2.415,1.167l-8.575,8.75c-0.916,0.833 -1.083,1.666 -1.083,2.333c0,1.333 1.167,2.583 2.583,2.583Z" style="fill:#fff;fill-rule:nonzero;"/><path d="M1200.84,226.99c0,2 1.497,3.5 3.494,3.5c1.914,0 3.495,-1.5 3.495,-3.5l0,-15.167l6.417,0l11.666,17.25c0.5,0.833 1.667,1.417 2.75,1.417c2,0 3.584,-1.334 3.584,-3.167c0,-0.75 -0.334,-1.5 -0.667,-2.083l-11.333,-16.412l10.083,-14.161c0.333,-0.584 0.583,-1.25 0.583,-2c0,-1.834 -1.583,-3.25 -3.5,-3.25c-1.333,0 -2.25,0.5 -2.916,1.5l-10.25,15.25l-6.417,0l0,-32.167c0,-1.917 -1.581,-3.5 -3.495,-3.5c-1.997,0 -3.494,1.5 -3.494,3.5l0,52.99Z" style="fill:#fff;fill-rule:nonzero;"/><path d="M1238.76,209.995c0,11.921 6.324,20.911 17.828,20.911c11.588,0 17.828,-8.99 17.828,-20.911c0,-12.088 -6.407,-20.995 -17.828,-20.995c-11.338,0 -17.828,8.907 -17.828,20.995Zm17.828,15.088c-6.836,0 -10.838,-6.252 -10.838,-15.088c0,-9.087 4.002,-15.255 10.838,-15.255c6.837,0 10.839,6.168 10.839,15.255c0,8.836 -4.002,15.088 -10.839,15.088Z" style="fill:#fff;fill-rule:nonzero;"/><path d="M1285.84,226.99c0,2 1.581,3.5 3.494,3.5c1.997,0 3.495,-1.5 3.495,-3.5l0,-27.834c3.002,-2.5 6.754,-4.416 9.839,-4.416c5.67,0 8.088,3.083 8.088,9.416l0,22.834c0,2 1.498,3.5 3.495,3.5c1.997,0 3.495,-1.5 3.495,-3.5l0,-22.834c0,-11.33 -5.575,-15.156 -13.66,-15.156c-3.753,0 -8.422,1.996 -12.089,5.324l-0.582,-2.574c-0.417,-1.333 -1.332,-2.333 -3.246,-2.333c-2.08,0 -3.079,1.5 -3.079,3.332c0,1.25 0.75,3.499 0.75,7.165l0,27.076Z" style="fill:#fff;fill-rule:nonzero;"/><path d="M1343.17,194.49c2.419,0 4.837,0.583 7.172,1.5c1.416,0.584 2.498,1.167 3.663,1.167c1.83,0 2.746,-1.334 2.746,-2.667c0,-1.414 -1.082,-2.413 -2.663,-3.161c-2.746,-1.414 -8.082,-2.329 -11.418,-2.329c-6.838,0 -13.744,3.743 -13.744,11.492c0,8.086 7.99,10.503 13.327,12.087c5.087,1.584 8.756,2.918 8.756,6.752c0,3.501 -2.835,6.002 -8.005,6.002c-2.585,0 -5.421,-0.583 -7.754,-1.417c-1.581,-0.5 -2.829,-1.084 -3.994,-1.084c-1.997,0 -2.913,1.418 -2.913,2.917c0,1.165 0.666,2.163 2.58,2.995c3.162,1.414 8.745,2.162 12.164,2.162c8.255,0 14.912,-4.242 14.912,-11.741c0,-7.753 -6.74,-10.087 -12.994,-12.004c-4.837,-1.501 -9.09,-2.918 -9.09,-7.003c0,-3.084 2.252,-5.668 7.255,-5.668Z" style="fill:#fff;fill-rule:nonzero;"/><path d="M1372.59,195.656l0,21.758c0,7.586 4.077,13.492 12.072,13.492c1.834,0 5.25,-0.416 7.667,-1.913c1.167,-0.832 1.667,-1.747 1.667,-2.828c0,-1.749 -1.25,-2.832 -2.75,-2.832c-1.584,0 -2.667,1.667 -5.75,1.667c-3.334,0 -5.917,-1.751 -5.917,-7.503l0,-21.841l10.083,0c1.667,0 2.917,-1.248 2.917,-2.828c0,-1.664 -1.25,-2.995 -2.917,-2.995l-10.083,0l0,-9.083c0,-2 -1.498,-3.5 -3.495,-3.5c-1.997,0 -3.494,1.5 -3.494,3.5l0,9.083l-5.834,0c-1.666,0 -2.916,1.331 -2.916,2.995c0,1.58 1.25,2.828 2.916,2.828l5.834,0Z" style="fill:#fff;fill-rule:nonzero;"/><path d="M1399.26,227.078c0,1.664 1.25,2.995 2.917,2.995l22.989,0c1.667,0 2.917,-1.331 2.917,-2.912c0,-1.663 -1.25,-2.994 -2.917,-2.994l-9.416,0l0,-24.092c2.583,-1.918 8.666,-4.669 12.666,-4.919l1,7.336c0.25,1.417 1.25,2.668 3.084,2.668c1.666,0 3.083,-1.334 2.916,-3.335l-0.833,-9.996c-0.167,-1.747 -1.667,-2.829 -3.583,-2.829c-5.917,0 -11.834,2.413 -16.582,5.491l-0.582,-2.578c-0.25,-1.165 -1.165,-2.08 -2.413,-2.08l-8.996,0c-1.667,0 -2.917,1.331 -2.917,2.995c0,1.58 1.25,2.828 2.917,2.828l6.333,0l0,28.511l-6.583,0c-1.667,0 -2.917,1.331 -2.917,2.911Z" style="fill:#fff;fill-rule:nonzero;"/><path d="M1469.17,220.75c-2.919,2.417 -6.671,4.333 -9.756,4.333c-5.753,0 -8.088,-3 -8.088,-9.333l0,-22.833c0,-2 -1.498,-3.5 -3.495,-3.5c-1.997,0 -3.494,1.5 -3.494,3.5l0,22.833c0,11.33 5.408,15.156 13.243,15.156c4.419,0 8.838,-1.996 12.505,-5.324l0.583,2.575c0.499,1.333 1.331,2.333 3.245,2.333c1.997,0 3.08,-1.5 3.08,-3.25c0,-1.333 -0.834,-3.582 -0.834,-7.164l0,-27.16c0,-1.999 -1.497,-3.499 -3.494,-3.499c-1.914,0 -3.495,1.5 -3.495,3.499l0,27.834Z" style="fill:#fff;fill-rule:nonzero;"/><path d="M1489.92,226.99c0,2 1.498,3.5 3.495,3.5c1.913,0 3.494,-1.5 3.494,-3.5l0,-15.167l6.417,0l11.667,17.25c0.5,0.833 1.666,1.417 2.75,1.417c2,0 3.583,-1.334 3.583,-3.167c0,-0.75 -0.333,-1.5 -0.667,-2.083l-11.333,-16.412l10.083,-14.161c0.334,-0.584 0.584,-1.25 0.584,-2c0,-1.834 -1.584,-3.25 -3.5,-3.25c-1.334,0 -2.25,0.5 -2.917,1.5l-10.25,15.25l-6.417,0l0,-32.167c0,-1.917 -1.581,-3.5 -3.494,-3.5c-1.997,0 -3.495,1.5 -3.495,3.5l0,52.99Z" style="fill:#fff;fill-rule:nonzero;"/><path d="M1552.81,200.575c0.251,2 1.504,3.168 3.258,3.168c1.922,0 3.341,-1.584 3.007,-4.085l-0.333,-3.585c-0.251,-2.082 -0.752,-3.247 -2.59,-4.411c-2.757,-1.747 -6.921,-2.662 -10.167,-2.662c-11.651,0 -18.141,7.74 -18.141,20.911c0,12.421 6.157,20.995 18.141,20.995c2.58,0 7.494,-0.665 10.668,-2.163c1.42,-0.665 2.589,-1.497 2.589,-3.077c0,-1.333 -0.918,-2.75 -2.756,-2.75c-1.086,0 -2.506,0.583 -3.926,1c-1.914,0.667 -4.328,1.167 -6.575,1.167c-7.573,0 -11.069,-6.252 -11.069,-15.172c0,-9.253 3.413,-15.171 11.069,-15.171c2.081,0 4.411,0.583 6.242,1.667l0.583,4.168Z" style="fill:#fff;fill-rule:nonzero;"/><path d="M1566.59,227.161c0,1.581 1.25,2.912 2.916,2.912l21.573,0c1.667,0 2.917,-1.331 2.917,-2.912c0,-1.663 -1.25,-2.994 -2.917,-2.994l-7.25,0l0,-31.339c0,-1.664 -1.331,-2.995 -2.995,-2.995l-11.078,0c-1.666,0 -2.916,1.331 -2.916,2.995c0,1.58 1.25,2.828 2.916,2.828l7.084,0l0,28.511l-7.334,0c-1.666,0 -2.916,1.331 -2.916,2.994Zm8.833,-42.328c0.75,0 1.5,-0.25 2.498,-1.083l8.825,-7.833c0.833,-0.834 1.5,-1.584 1.5,-2.667c0,-1.583 -1.25,-3.25 -3.334,-3.25c-0.833,0 -1.665,0.417 -2.414,1.167l-8.575,8.75c-0.917,0.833 -1.083,1.666 -1.083,2.333c0,1.333 1.166,2.583 2.583,2.583Z" style="fill:#fff;fill-rule:nonzero;"/><path d="M1620.51,226.99c0,2 1.581,3.5 3.495,3.5c1.997,0 3.495,-1.5 3.495,-3.5l0,-27.834c3.002,-2.5 6.754,-4.416 9.839,-4.416c5.67,0 8.088,3.083 8.088,9.416l0,22.834c0,2 1.498,3.5 3.495,3.5c1.997,0 3.494,-1.5 3.494,-3.5l0,-22.834c0,-11.33 -5.575,-15.156 -13.66,-15.156c-3.752,0 -8.421,1.996 -12.088,5.324l-0.583,-2.574c-0.416,-1.333 -1.331,-2.333 -3.245,-2.333c-2.08,0 -3.08,1.5 -3.08,3.332c0,1.25 0.75,3.499 0.75,7.165l0,27.076Z" style="fill:#fff;fill-rule:nonzero;"/><path d="M1687.09,220.746c-3.419,3.086 -7.422,4.337 -10.257,4.337c-4.752,0 -7.504,-2.418 -7.504,-6.505c0,-4.17 3.002,-6.422 8.839,-6.422l8.922,0l0,8.59Zm0,-13.579l-9.173,0c-9.67,0 -15.411,4.324 -15.411,11.828c0,7.253 5.076,11.911 12.91,11.911c5.336,0 9.756,-2.495 12.589,-5.157l0.582,2.407c0.333,1.25 1.332,2.334 3.162,2.334c2.08,0 3.163,-1.417 3.163,-3.084c0,-1.5 -0.833,-3.083 -0.833,-7.833l0,-16.41c0,-7.172 -3.495,-14.163 -15.244,-14.163c-3.169,0 -8.005,0.665 -11.004,2.163c-1.581,0.832 -2.413,1.663 -2.413,2.911c0,1.416 0.999,2.834 2.913,2.834c1.082,0 2.416,-0.584 3.833,-1.001c2.001,-0.667 4.086,-1.167 6.087,-1.167c6.754,0 8.839,3.753 8.839,8.423l0,4.004Z" style="fill:#fff;fill-rule:nonzero;"/><path d="M1733.33,191.75c-0.333,-1.333 -1.331,-2.333 -3.078,-2.333c-2.247,0 -3.247,1.5 -3.247,3.25c0,1.416 0.834,3.583 0.834,7.25l0,43.573c0,2 1.497,3.5 3.494,3.5c1.997,0 3.495,-1.5 3.495,-3.5l0,-14.747c2.251,0.915 5.169,2.08 8.921,2.08c12.088,0 17.912,-8.406 17.912,-20.906c0,-12.26 -5.159,-20.917 -15.66,-20.917c-4.086,0 -8.255,1.83 -12.088,5.24l-0.583,-2.49Zm1.498,7.408c3.752,-3.335 7.504,-4.418 10.005,-4.418c6.837,0 9.839,6.252 9.839,15.421c0,8.754 -3.169,14.922 -11.173,14.922c-3.335,0 -6.67,-1.083 -8.671,-2.167l0,-23.758Z" style="fill:#fff;fill-rule:nonzero;"/><path d="M1767.17,227.161c0,1.581 1.25,2.912 2.833,2.912l21.573,0c1.667,0 2.917,-1.331 2.917,-2.912c0,-1.663 -1.25,-2.994 -2.917,-2.994l-7.25,0l0,-50.339c0,-1.581 -1.331,-2.995 -2.995,-2.995l-11.078,0c-1.666,0 -2.916,1.331 -2.916,2.995c0,1.581 1.25,2.912 2.916,2.912l7.084,0l0,47.427l-7.334,0c-1.583,0 -2.833,1.331 -2.833,2.994Z" style="fill:#fff;fill-rule:nonzero;"/><path d="M1799.84,209.995c0,11.921 6.323,20.911 17.828,20.911c11.587,0 17.828,-8.99 17.828,-20.911c0,-12.088 -6.407,-20.995 -17.828,-20.995c-11.338,0 -17.828,8.907 -17.828,20.995Zm17.828,15.088c-6.837,0 -10.839,-6.252 -10.839,-15.088c0,-9.087 4.002,-15.255 10.839,-15.255c6.836,0 10.838,6.168 10.838,15.255c0,8.836 -4.002,15.088 -10.838,15.088Z" style="fill:#fff;fill-rule:nonzero;"/><path d="M1869.64,200.575c0.25,2 1.503,3.168 3.258,3.168c1.921,0 3.34,-1.584 3.007,-4.085l-0.334,-3.585c-0.251,-2.082 -0.752,-3.247 -2.59,-4.411c-2.756,-1.747 -6.921,-2.662 -10.167,-2.662c-11.651,0 -18.141,7.74 -18.141,20.911c0,12.421 6.158,20.995 18.141,20.995c2.58,0 7.494,-0.665 10.668,-2.163c1.421,-0.665 2.589,-1.497 2.589,-3.077c0,-1.333 -0.918,-2.75 -2.756,-2.75c-1.086,0 -2.506,0.583 -3.926,1c-1.914,0.667 -4.328,1.167 -6.575,1.167c-7.573,0 -11.068,-6.252 -11.068,-15.172c0,-9.253 3.412,-15.171 11.068,-15.171c2.081,0 4.411,0.583 6.242,1.667l0.584,4.168Z" style="fill:#fff;fill-rule:nonzero;"/><path d="M1887.01,226.99c0,2 1.498,3.5 3.495,3.5c1.914,0 3.495,-1.5 3.495,-3.5l0,-27.834c2.918,-2.5 6.67,-4.416 9.755,-4.416c5.754,0 8.089,3.083 8.089,9.416l0,22.834c0,2 1.497,3.5 3.494,3.5c1.997,0 3.495,-1.5 3.495,-3.5l0,-22.834c0,-11.33 -5.408,-15.156 -13.243,-15.156c-4.253,0 -8.172,1.83 -11.59,4.492l0,-19.575c0,-2 -1.581,-3.5 -3.495,-3.5c-1.997,0 -3.495,1.5 -3.495,3.5l0,53.073Z" style="fill:#fff;fill-rule:nonzero;"/><path d="M1932.84,240.657c-1.749,0.25 -2.916,1.5 -2.916,3.083c0,1.5 0.917,3.25 3.499,3.25c0.75,0 2.083,-0.167 3.083,-0.417c5.581,-1.666 9.663,-5.249 12.746,-13.914l13.329,-38.243c0.167,-0.417 0.333,-1.083 0.333,-1.583c0,-1.916 -1.583,-3.416 -3.499,-3.416c-1.583,0 -2.915,1 -3.332,2.416l-10.413,31.994l-0.25,0l-10.497,-31.994c-0.417,-1.416 -1.833,-2.416 -3.333,-2.416c-1.999,0 -3.498,1.5 -3.498,3.416c0,0.5 0.083,1.166 0.249,1.583l13.663,38.41c-1.833,5.165 -4.582,6.665 -9.164,7.831Zm9.664,-55.824c0.75,0 1.499,-0.25 2.499,-1.083l8.831,-7.833c0.833,-0.834 1.499,-1.584 1.499,-2.667c0,-1.583 -1.249,-3.25 -3.332,-3.25c-0.833,0 -1.666,0.417 -2.416,1.167l-8.581,8.75c-0.916,0.833 -1.083,1.666 -1.083,2.333c0,1.333 1.167,2.583 2.583,2.583Z" style="fill:#fff;fill-rule:nonzero;"/><path d="M1994.39,200.575c0.25,2 1.503,3.168 3.258,3.168c1.921,0 3.34,-1.584 3.007,-4.085l-0.334,-3.585c-0.251,-2.082 -0.752,-3.247 -2.59,-4.411c-2.756,-1.747 -6.921,-2.662 -10.167,-2.662c-11.651,0 -18.141,7.74 -18.141,20.911c0,12.421 6.158,20.995 18.141,20.995c2.58,0 7.494,-0.665 10.668,-2.163c1.421,-0.665 2.589,-1.497 2.589,-3.077c0,-1.333 -0.918,-2.75 -2.756,-2.75c-1.086,0 -2.506,0.583 -3.926,1c-1.914,0.667 -4.328,1.167 -6.575,1.167c-7.573,0 -11.068,-6.252 -11.068,-15.172c0,-9.253 3.412,-15.171 11.068,-15.171c2.081,0 4.411,0.583 6.242,1.667l0.584,4.168Z" style="fill:#fff;fill-rule:nonzero;"/><path d="M2011.76,226.99c0,2 1.498,3.5 3.495,3.5c1.914,0 3.495,-1.5 3.495,-3.5l0,-27.834c2.918,-2.5 6.67,-4.416 9.755,-4.416c5.754,0 8.089,3.083 8.089,9.416l0,22.834c0,2 1.497,3.5 3.494,3.5c1.997,0 3.495,-1.5 3.495,-3.5l0,-22.834c0,-11.33 -5.408,-15.156 -13.243,-15.156c-4.253,0 -8.172,1.83 -11.59,4.492l0,-19.575c0,-2 -1.581,-3.5 -3.495,-3.5c-1.997,0 -3.495,1.5 -3.495,3.5l0,53.073Z" style="fill:#fff;fill-rule:nonzero;"/><path d="M2089.17,194.49c2.419,0 4.837,0.583 7.172,1.5c1.416,0.584 2.498,1.167 3.663,1.167c1.83,0 2.746,-1.334 2.746,-2.667c0,-1.414 -1.082,-2.413 -2.663,-3.161c-2.746,-1.414 -8.082,-2.329 -11.418,-2.329c-6.838,0 -13.744,3.743 -13.744,11.492c0,8.086 7.99,10.503 13.327,12.087c5.087,1.584 8.756,2.918 8.756,6.752c0,3.501 -2.835,6.002 -8.005,6.002c-2.585,0 -5.421,-0.583 -7.754,-1.417c-1.581,-0.5 -2.829,-1.084 -3.994,-1.084c-1.997,0 -2.913,1.418 -2.913,2.917c0,1.165 0.666,2.163 2.58,2.995c3.162,1.414 8.745,2.162 12.164,2.162c8.255,0 14.912,-4.242 14.912,-11.741c0,-7.753 -6.74,-10.087 -12.994,-12.004c-4.837,-1.501 -9.09,-2.918 -9.09,-7.003c0,-3.084 2.252,-5.668 7.255,-5.668Z" style="fill:#fff;fill-rule:nonzero;"/><path d="M2118.59,195.656l0,21.758c0,7.586 4.077,13.492 12.072,13.492c1.834,0 5.25,-0.416 7.667,-1.913c1.167,-0.832 1.667,-1.747 1.667,-2.828c0,-1.749 -1.25,-2.832 -2.75,-2.832c-1.584,0 -2.667,1.667 -5.75,1.667c-3.334,0 -5.917,-1.751 -5.917,-7.503l0,-21.841l10.083,0c1.667,0 2.917,-1.248 2.917,-2.828c0,-1.664 -1.25,-2.995 -2.917,-2.995l-10.083,0l0,-9.083c0,-2 -1.498,-3.5 -3.495,-3.5c-1.997,0 -3.494,1.5 -3.494,3.5l0,9.083l-5.834,0c-1.666,0 -2.916,1.331 -2.916,2.995c0,1.58 1.25,2.828 2.916,2.828l5.834,0Z" style="fill:#fff;fill-rule:nonzero;"/><path d="M2145.26,227.078c0,1.664 1.25,2.995 2.917,2.995l22.989,0c1.667,0 2.917,-1.331 2.917,-2.912c0,-1.663 -1.25,-2.994 -2.917,-2.994l-9.416,0l0,-24.092c2.583,-1.918 8.666,-4.669 12.666,-4.919l1,7.336c0.25,1.417 1.25,2.668 3.084,2.668c1.666,0 3.083,-1.334 2.916,-3.335l-0.833,-9.996c-0.167,-1.747 -1.667,-2.829 -3.583,-2.829c-5.917,0 -11.834,2.413 -16.582,5.491l-0.582,-2.578c-0.25,-1.165 -1.165,-2.08 -2.413,-2.08l-8.996,0c-1.667,0 -2.917,1.331 -2.917,2.995c0,1.58 1.25,2.828 2.917,2.828l6.333,0l0,28.511l-6.583,0c-1.667,0 -2.917,1.331 -2.917,2.911Zm20.323,-47.948l-6.912,-7.301c-0.666,-0.664 -1.331,-0.996 -2.247,-0.996c-1.248,0 -2.414,0.913 -2.414,2.489c0,0.913 0.5,1.743 1,2.241l6.24,6.637c1.166,1.245 2.5,2.157 4.333,2.157c1.833,0 3.25,-0.912 4.333,-2.157l6.25,-6.637c0.5,-0.498 1,-1.328 1,-2.241c0,-1.576 -1.166,-2.489 -2.416,-2.489c-0.917,0 -1.584,0.332 -2.25,0.996l-6.917,7.301Z" style="fill:#fff;fill-rule:nonzero;"/><path d="M2195.16,211.573l23.088,0c1.581,0 2.746,-0.748 2.746,-3.742c0,-12.007 -5.075,-18.831 -15.828,-18.831c-11.004,0 -16.995,7.825 -16.995,20.827c0,12.588 5.908,21.079 18.412,21.079c2.918,0 7.754,-0.665 10.833,-2.162c1.331,-0.749 2.579,-1.498 2.579,-2.995c0,-1.333 -0.998,-2.667 -2.828,-2.667c-1.332,0 -2.58,0.584 -4.08,1.001c-2.001,0.583 -4.169,1.084 -6.504,1.084c-8.171,0 -11.423,-5.922 -11.423,-13.594Zm0,-4.823c0.417,-6.506 3.502,-12.01 10.006,-12.01c6.92,0 9.171,5.004 9.338,12.01l-19.344,0Z" style="fill:#fff;fill-rule:nonzero;"/><path d="M2254.89,200.575c0.25,2 1.503,3.168 3.258,3.168c1.921,0 3.34,-1.584 3.007,-4.085l-0.334,-3.585c-0.251,-2.082 -0.752,-3.247 -2.59,-4.411c-2.756,-1.747 -6.921,-2.662 -10.167,-2.662c-11.651,0 -18.141,7.74 -18.141,20.911c0,12.421 6.158,20.995 18.141,20.995c2.58,0 7.494,-0.665 10.668,-2.163c1.421,-0.665 2.589,-1.497 2.589,-3.077c0,-1.333 -0.918,-2.75 -2.756,-2.75c-1.086,0 -2.506,0.583 -3.926,1c-1.914,0.667 -4.328,1.167 -6.575,1.167c-7.573,0 -11.068,-6.252 -11.068,-15.172c0,-9.253 3.412,-15.171 11.068,-15.171c2.081,0 4.411,0.583 6.242,1.667l0.584,4.168Z" style="fill:#fff;fill-rule:nonzero;"/><path d="M2272.26,226.99c0,2 1.498,3.5 3.495,3.5c1.914,0 3.495,-1.5 3.495,-3.5l0,-27.834c2.918,-2.5 6.67,-4.416 9.755,-4.416c5.754,0 8.089,3.083 8.089,9.416l0,22.834c0,2 1.497,3.5 3.494,3.5c1.997,0 3.495,-1.5 3.495,-3.5l0,-22.834c0,-11.33 -5.408,-15.156 -13.243,-15.156c-4.253,0 -8.172,1.83 -11.59,4.492l0,-19.575c0,-2 -1.581,-3.5 -3.495,-3.5c-1.997,0 -3.495,1.5 -3.495,3.5l0,53.073Z" style="fill:#fff;fill-rule:nonzero;"/><path d="M2338.76,220.746c-3.419,3.086 -7.421,4.337 -10.256,4.337c-4.753,0 -7.504,-2.418 -7.504,-6.505c0,-4.17 3.002,-6.422 8.838,-6.422l8.922,0l0,8.59Zm0,-13.579l-9.172,0c-9.67,0 -15.411,4.324 -15.411,11.828c0,7.253 5.075,11.911 12.91,11.911c5.336,0 9.755,-2.495 12.589,-5.157l0.582,2.407c0.333,1.25 1.331,2.334 3.162,2.334c2.08,0 3.163,-1.417 3.163,-3.084c0,-1.5 -0.833,-3.083 -0.833,-7.833l0,-16.41c0,-7.172 -3.495,-14.163 -15.245,-14.163c-3.168,0 -8.004,0.665 -11.003,2.163c-1.581,0.832 -2.413,1.663 -2.413,2.911c0,1.416 0.999,2.834 2.912,2.834c1.082,0 2.416,-0.584 3.834,-1.001c2.001,-0.667 4.085,-1.167 6.087,-1.167c6.754,0 8.838,3.753 8.838,8.423l0,4.004Zm-11.34,-22.334c0.751,0 1.501,-0.25 2.502,-1.083l8.838,-7.833c0.832,-0.834 1.498,-1.584 1.498,-2.667c0,-1.583 -1.248,-3.25 -3.332,-3.25c-0.834,0 -1.668,0.417 -2.418,1.167l-8.589,8.75c-0.917,0.833 -1.084,1.666 -1.084,2.333c0,1.333 1.168,2.583 2.585,2.583Z" style="fill:#fff;fill-rule:nonzero;"/><path d="M2381.97,200.575c0.251,2 1.504,3.168 3.258,3.168c1.921,0 3.34,-1.584 3.007,-4.085l-0.334,-3.585c-0.25,-2.082 -0.752,-3.247 -2.589,-4.411c-2.757,-1.747 -6.922,-2.662 -10.167,-2.662c-11.651,0 -18.142,7.74 -18.142,20.911c0,12.421 6.158,20.995 18.142,20.995c2.58,0 7.493,-0.665 10.668,-2.163c1.42,-0.665 2.589,-1.497 2.589,-3.077c0,-1.333 -0.918,-2.75 -2.756,-2.75c-1.086,0 -2.506,0.583 -3.927,1c-1.914,0.667 -4.327,1.167 -6.574,1.167c-7.574,0 -11.069,-6.252 -11.069,-15.172c0,-9.253 3.412,-15.171 11.069,-15.171c2.08,0 4.411,0.583 6.241,1.667l0.584,4.168Z" style="fill:#fff;fill-rule:nonzero;"/><path d="M2399.34,226.99c0,2 1.497,3.5 3.494,3.5c1.914,0 3.495,-1.5 3.495,-3.5l0,-27.834c2.918,-2.5 6.671,-4.416 9.756,-4.416c5.753,0 8.088,3.083 8.088,9.416l0,22.834c0,2 1.498,3.5 3.495,3.5c1.997,0 3.494,-1.5 3.494,-3.5l0,-22.834c0,-11.33 -5.408,-15.156 -13.243,-15.156c-4.252,0 -8.171,1.83 -11.59,4.492l0,-19.575c0,-2 -1.581,-3.5 -3.495,-3.5c-1.997,0 -3.494,1.5 -3.494,3.5l0,53.073Z" style="fill:#fff;fill-rule:nonzero;"/></g></g></svg>